<svg xmlns="http://www.w3.org/2000/svg" xmlns:xlink="http://www.w3.org/1999/xlink" width="375" viewBox="0 0 375 375" height="375" version="1.0"><defs><g id="a"><path d="M 45 -84 C 52.519531 -84 58.976562 -82.140625 64.375 -78.421875 C 69.78125 -74.703125 73.898438 -69.660156 76.734375 -63.296875 C 79.578125 -56.941406 81 -49.84375 81 -42 C 81 -34.15625 79.578125 -27.050781 76.734375 -20.6875 C 73.898438 -14.332031 69.78125 -9.296875 64.375 -5.578125 C 58.976562 -1.859375 52.519531 0 45 0 L 16.3125 0 C 14.238281 0 12.5 -0.695312 11.09375 -2.09375 C 9.695312 -3.5 9 -5.238281 9 -7.3125 L 9 -76.6875 C 9 -78.757812 9.695312 -80.492188 11.09375 -81.890625 C 12.5 -83.296875 14.238281 -84 16.3125 -84 Z M 43.796875 -13.796875 C 50.992188 -13.796875 56.394531 -16.457031 60 -21.78125 C 63.601562 -27.101562 65.40625 -33.84375 65.40625 -42 C 65.40625 -50.15625 63.582031 -56.894531 59.9375 -62.21875 C 56.300781 -67.539062 50.921875 -70.203125 43.796875 -70.203125 L 24 -70.203125 L 24 -13.796875 Z M 43.796875 -13.796875"/></g><g id="b"><path d="M 67.796875 -79.921875 C 70.273438 -78.640625 71.515625 -76.597656 71.515625 -73.796875 C 71.515625 -72.117188 70.914062 -70.476562 69.71875 -68.875 C 68.4375 -67.195312 66.796875 -66.359375 64.796875 -66.359375 C 63.441406 -66.359375 62.082031 -66.71875 60.71875 -67.4375 C 56.800781 -69.28125 52.5625 -70.203125 48 -70.203125 C 42.394531 -70.203125 37.515625 -69.019531 33.359375 -66.65625 C 29.203125 -64.300781 26.003906 -60.984375 23.765625 -56.703125 C 21.523438 -52.421875 20.40625 -47.519531 20.40625 -42 C 20.40625 -32.5625 22.941406 -25.398438 28.015625 -20.515625 C 33.097656 -15.640625 39.757812 -13.203125 48 -13.203125 C 52.875 -13.203125 57.113281 -14.117188 60.71875 -15.953125 C 62.15625 -16.597656 63.4375 -16.921875 64.5625 -16.921875 C 66.644531 -16.921875 68.40625 -16.039062 69.84375 -14.28125 C 71.039062 -12.757812 71.640625 -11.117188 71.640625 -9.359375 C 71.640625 -8.078125 71.316406 -6.914062 70.671875 -5.875 C 70.035156 -4.832031 69.117188 -4.035156 67.921875 -3.484375 C 61.679688 -0.359375 55.039062 1.203125 48 1.203125 C 40.15625 1.203125 32.953125 -0.457031 26.390625 -3.78125 C 19.835938 -7.101562 14.597656 -12.003906 10.671875 -18.484375 C 6.753906 -24.960938 4.796875 -32.800781 4.796875 -42 C 4.796875 -50.15625 6.65625 -57.472656 10.375 -63.953125 C 14.09375 -70.441406 19.234375 -75.503906 25.796875 -79.140625 C 32.359375 -82.773438 39.757812 -84.59375 48 -84.59375 C 55.125 -84.59375 61.722656 -83.035156 67.796875 -79.921875 Z M 67.796875 -79.921875"/></g><g id="c"><path d="M 71.640625 -11.046875 C 72.597656 -9.765625 73.078125 -8.28125 73.078125 -6.59375 C 73.078125 -4.519531 72.316406 -2.800781 70.796875 -1.4375 C 69.273438 -0.0820312 67.632812 0.59375 65.875 0.59375 C 63.5625 0.59375 61.601562 -0.441406 60 -2.515625 L 38.640625 -30.953125 L 17.875 -2.765625 C 16.28125 -0.523438 14.28125 0.59375 11.875 0.59375 C 10.113281 0.59375 8.59375 -0.0390625 7.3125 -1.3125 C 6.039062 -2.59375 5.40625 -4.078125 5.40625 -5.765625 C 5.40625 -7.523438 6.003906 -9.164062 7.203125 -10.6875 L 30.359375 -42 L 7.203125 -72.71875 C 6.160156 -74 5.640625 -75.441406 5.640625 -77.046875 C 5.640625 -79.046875 6.398438 -80.765625 7.921875 -82.203125 C 9.441406 -83.640625 11.117188 -84.359375 12.953125 -84.359375 C 15.273438 -84.359375 17.238281 -83.316406 18.84375 -81.234375 L 39.953125 -53.15625 L 60.59375 -80.640625 C 61.394531 -81.753906 62.316406 -82.613281 63.359375 -83.21875 C 64.398438 -83.820312 65.441406 -84.125 66.484375 -84.125 C 68.242188 -84.125 69.800781 -83.421875 71.15625 -82.015625 C 72.519531 -80.617188 73.203125 -79.082031 73.203125 -77.40625 C 73.203125 -75.882812 72.679688 -74.441406 71.640625 -73.078125 L 48.234375 -42.234375 Z M 71.640625 -11.046875"/></g></defs><g fill="#121212"><use x="67.676" y="238.403" xmlns:xlink="http://www.w3.org/1999/xlink" xlink:href="#a" xlink:type="simple" xlink:actuate="onLoad" xlink:show="embed"/></g><g fill="#121212"><use x="153.476" y="238.403" xmlns:xlink="http://www.w3.org/1999/xlink" xlink:href="#b" xlink:type="simple" xlink:actuate="onLoad" xlink:show="embed"/></g><g fill="#121212"><use x="228.716" y="238.403" xmlns:xlink="http://www.w3.org/1999/xlink" xlink:href="#c" xlink:type="simple" xlink:actuate="onLoad" xlink:show="embed"/></g></svg>