<svg xmlns="http://www.w3.org/2000/svg" xmlns:xlink="http://www.w3.org/1999/xlink" width="375" viewBox="0 0 375 375" height="375" version="1.0"><defs><g id="a"><path d="M 3.484375 -28.921875 C 3.796875 -28.941406 4.113281 -28.96875 4.4375 -29 C 4.757812 -29.03125 5.070312 -29.054688 5.375 -29.078125 C 5.6875 -29.109375 5.992188 -29.132812 6.296875 -29.15625 C 6.609375 -29.1875 6.921875 -29.203125 7.234375 -29.203125 C 8.441406 -29.273438 9.832031 -29.3125 11.40625 -29.3125 C 13.9375 -29.3125 16.132812 -28.914062 18 -28.125 C 19.863281 -27.320312 21.425781 -26.203125 22.6875 -24.765625 C 23.90625 -23.378906 24.8125 -21.75 25.40625 -19.875 C 25.988281 -18.039062 26.28125 -16.09375 26.28125 -14.03125 C 26.28125 -11.976562 25.988281 -10.035156 25.40625 -8.203125 C 25.269531 -7.828125 25.128906 -7.457031 24.984375 -7.09375 C 24.835938 -6.738281 24.675781 -6.394531 24.5 -6.0625 C 24.320312 -5.726562 24.132812 -5.398438 23.9375 -5.078125 C 23.738281 -4.753906 23.53125 -4.441406 23.3125 -4.140625 C 23.101562 -3.835938 22.863281 -3.535156 22.59375 -3.234375 C 21.34375 -1.828125 19.742188 -0.707031 17.796875 0.125 C 15.878906 0.914062 13.597656 1.3125 10.953125 1.3125 C 10.691406 1.3125 10.441406 1.3125 10.203125 1.3125 C 9.960938 1.3125 9.722656 1.3125 9.484375 1.3125 C 9.242188 1.3125 9.015625 1.304688 8.796875 1.296875 C 8.585938 1.285156 8.375 1.28125 8.15625 1.28125 C 7.945312 1.28125 7.734375 1.269531 7.515625 1.25 C 7.304688 1.238281 7.109375 1.222656 6.921875 1.203125 C 5.773438 1.148438 4.628906 1.054688 3.484375 0.921875 L 2.59375 0.796875 L 2.59375 -28.796875 Z M 11.28125 -24.046875 C 10.90625 -24.046875 10.546875 -24.035156 10.203125 -24.015625 C 9.859375 -24.003906 9.535156 -24 9.234375 -24 C 8.941406 -23.96875 8.664062 -23.941406 8.40625 -23.921875 L 8.40625 -4.078125 C 8.476562 -4.078125 8.546875 -4.078125 8.609375 -4.078125 C 8.679688 -4.078125 8.75 -4.070312 8.8125 -4.0625 C 8.882812 -4.050781 8.945312 -4.046875 9 -4.046875 C 9.050781 -4.046875 9.117188 -4.046875 9.203125 -4.046875 C 9.816406 -4.015625 10.441406 -4 11.078125 -4 C 11.421875 -4 11.742188 -4.007812 12.046875 -4.03125 C 12.359375 -4.0625 12.660156 -4.097656 12.953125 -4.140625 C 13.253906 -4.179688 13.539062 -4.226562 13.8125 -4.28125 C 14.09375 -4.332031 14.359375 -4.394531 14.609375 -4.46875 C 14.867188 -4.550781 15.101562 -4.648438 15.3125 -4.765625 C 16.488281 -5.242188 17.453125 -5.910156 18.203125 -6.765625 C 18.941406 -7.617188 19.488281 -8.65625 19.84375 -9.875 C 20.21875 -11.132812 20.40625 -12.523438 20.40625 -14.046875 C 20.40625 -15.378906 20.21875 -16.65625 19.84375 -17.875 C 19.46875 -19.082031 18.921875 -20.148438 18.203125 -21.078125 C 17.828125 -21.535156 17.40625 -21.941406 16.9375 -22.296875 C 16.46875 -22.660156 15.941406 -22.972656 15.359375 -23.234375 C 14.210938 -23.773438 12.851562 -24.046875 11.28125 -24.046875 Z M 11.28125 -24.046875"/></g><g id="b"><path d="M -0.46875 -1.359375 L 10.484375 -28.359375 L 10.734375 -29 L 16.25 -29 L 16.484375 -28.359375 L 27.28125 -1.359375 L 27.640625 -0.4375 L 26.734375 -0.078125 L 23.25 1.3125 L 22.328125 1.71875 L 21.96875 0.765625 L 19.09375 -6.59375 L 7.484375 -6.59375 L 4.609375 0.6875 L 4.25 1.640625 L 3.328125 1.234375 L 0.09375 -0.078125 L -0.875 -0.4375 Z M 9.484375 -11.796875 L 17.046875 -11.796875 L 13.28125 -21.484375 Z M 9.484375 -11.796875"/></g><g id="c"><path d="M 1 -14.046875 C 1 -16.203125 1.316406 -18.210938 1.953125 -20.078125 C 2.597656 -21.972656 3.535156 -23.613281 4.765625 -25 C 5.984375 -26.414062 7.472656 -27.507812 9.234375 -28.28125 C 10.117188 -28.675781 11.0625 -28.972656 12.0625 -29.171875 C 13.0625 -29.378906 14.109375 -29.484375 15.203125 -29.484375 C 16.296875 -29.484375 17.34375 -29.378906 18.34375 -29.171875 C 19.34375 -28.972656 20.28125 -28.660156 21.15625 -28.234375 C 22.039062 -27.835938 22.851562 -27.359375 23.59375 -26.796875 C 24.34375 -26.234375 25.023438 -25.59375 25.640625 -24.875 C 26.867188 -23.488281 27.816406 -21.863281 28.484375 -20 C 29.117188 -18.132812 29.4375 -16.144531 29.4375 -14.03125 C 29.4375 -11.925781 29.117188 -9.941406 28.484375 -8.078125 C 28.265625 -7.460938 28.015625 -6.863281 27.734375 -6.28125 C 27.453125 -5.695312 27.140625 -5.144531 26.796875 -4.625 C 26.453125 -4.101562 26.082031 -3.601562 25.6875 -3.125 C 25.070312 -2.40625 24.382812 -1.765625 23.625 -1.203125 C 22.863281 -0.640625 22.054688 -0.160156 21.203125 0.234375 C 19.441406 1.066406 17.441406 1.484375 15.203125 1.484375 C 12.960938 1.484375 10.960938 1.066406 9.203125 0.234375 C 8.773438 0.0234375 8.359375 -0.195312 7.953125 -0.4375 C 7.554688 -0.675781 7.171875 -0.9375 6.796875 -1.21875 C 6.421875 -1.5 6.0625 -1.796875 5.71875 -2.109375 C 5.375 -2.429688 5.054688 -2.769531 4.765625 -3.125 C 3.535156 -4.53125 2.597656 -6.179688 1.953125 -8.078125 C 1.316406 -9.941406 1 -11.929688 1 -14.046875 Z M 6.875 -14.046875 C 6.875 -13.378906 6.921875 -12.71875 7.015625 -12.0625 C 7.109375 -11.40625 7.25 -10.757812 7.4375 -10.125 C 7.65625 -9.507812 7.894531 -8.925781 8.15625 -8.375 C 8.425781 -7.832031 8.75 -7.320312 9.125 -6.84375 C 9.226562 -6.675781 9.347656 -6.523438 9.484375 -6.390625 C 9.617188 -6.265625 9.75 -6.132812 9.875 -6 C 10.007812 -5.863281 10.148438 -5.726562 10.296875 -5.59375 C 10.441406 -5.46875 10.59375 -5.347656 10.75 -5.234375 C 10.914062 -5.128906 11.078125 -5.023438 11.234375 -4.921875 C 11.398438 -4.816406 11.5625 -4.707031 11.71875 -4.59375 C 12.726562 -4.0625 13.890625 -3.796875 15.203125 -3.796875 C 15.679688 -3.796875 16.132812 -3.820312 16.5625 -3.875 C 16.988281 -3.925781 17.382812 -4.007812 17.75 -4.125 C 18.125 -4.25 18.472656 -4.394531 18.796875 -4.5625 C 19.835938 -5.0625 20.707031 -5.753906 21.40625 -6.640625 C 21.644531 -6.929688 21.851562 -7.242188 22.03125 -7.578125 C 22.21875 -7.910156 22.390625 -8.269531 22.546875 -8.65625 C 22.710938 -9.039062 22.863281 -9.4375 23 -9.84375 C 23.375 -11.144531 23.5625 -12.546875 23.5625 -14.046875 C 23.5625 -15.378906 23.359375 -16.65625 22.953125 -17.875 C 22.585938 -19.101562 22.03125 -20.195312 21.28125 -21.15625 C 20.5625 -22.09375 19.695312 -22.84375 18.6875 -23.40625 C 17.664062 -23.9375 16.503906 -24.203125 15.203125 -24.203125 C 14.878906 -24.203125 14.554688 -24.1875 14.234375 -24.15625 C 13.921875 -24.132812 13.613281 -24.085938 13.3125 -24.015625 C 13.019531 -23.953125 12.738281 -23.875 12.46875 -23.78125 C 12.207031 -23.6875 11.957031 -23.570312 11.71875 -23.4375 C 11.1875 -23.195312 10.707031 -22.90625 10.28125 -22.5625 C 9.851562 -22.21875 9.46875 -21.816406 9.125 -21.359375 C 8.40625 -20.453125 7.84375 -19.382812 7.4375 -18.15625 C 7.0625 -16.875 6.875 -15.503906 6.875 -14.046875 Z M 6.875 -14.046875"/></g><g id="d"><path d="M 6.875 -14.046875 C 6.875 -13.503906 6.894531 -12.988281 6.9375 -12.5 C 6.976562 -12.007812 7.046875 -11.535156 7.140625 -11.078125 C 7.234375 -10.628906 7.347656 -10.191406 7.484375 -9.765625 C 7.878906 -8.503906 8.4375 -7.4375 9.15625 -6.5625 C 9.394531 -6.269531 9.640625 -5.992188 9.890625 -5.734375 C 10.148438 -5.484375 10.425781 -5.257812 10.71875 -5.0625 C 11.007812 -4.863281 11.316406 -4.679688 11.640625 -4.515625 C 12.597656 -4.066406 13.648438 -3.84375 14.796875 -3.84375 C 15.992188 -3.84375 17.019531 -3.972656 17.875 -4.234375 C 18.78125 -4.535156 19.648438 -4.9375 20.484375 -5.4375 L 21.515625 -6.046875 L 21.921875 -4.921875 L 23.078125 -1.765625 L 23.40625 -0.921875 L 22.640625 -0.515625 C 21.578125 0.0351562 20.378906 0.515625 19.046875 0.921875 C 17.679688 1.296875 16.117188 1.484375 14.359375 1.484375 C 12.390625 1.484375 10.582031 1.117188 8.9375 0.390625 C 7.300781 -0.328125 5.882812 -1.363281 4.6875 -2.71875 C 3.507812 -4.050781 2.597656 -5.664062 1.953125 -7.5625 C 1.316406 -9.457031 1 -11.5625 1 -13.875 C 1 -16.113281 1.316406 -18.179688 1.953125 -20.078125 C 2.597656 -21.992188 3.519531 -23.648438 4.71875 -25.046875 C 5.945312 -26.453125 7.414062 -27.539062 9.125 -28.3125 C 9.976562 -28.6875 10.882812 -28.972656 11.84375 -29.171875 C 12.800781 -29.378906 13.800781 -29.484375 14.84375 -29.484375 C 16.28125 -29.484375 17.570312 -29.347656 18.71875 -29.078125 C 19.863281 -28.816406 20.957031 -28.441406 22 -27.953125 L 22.796875 -27.5625 L 22.515625 -26.6875 L 21.359375 -23.484375 L 20.953125 -22.4375 L 19.953125 -22.921875 C 19.179688 -23.316406 18.394531 -23.625 17.59375 -23.84375 C 17.332031 -23.914062 17.0625 -23.972656 16.78125 -24.015625 C 16.5 -24.054688 16.191406 -24.085938 15.859375 -24.109375 C 15.523438 -24.140625 15.171875 -24.15625 14.796875 -24.15625 C 14.234375 -24.15625 13.6875 -24.101562 13.15625 -24 C 12.625 -23.894531 12.117188 -23.734375 11.640625 -23.515625 C 11.160156 -23.304688 10.710938 -23.039062 10.296875 -22.71875 C 9.890625 -22.394531 9.507812 -22.019531 9.15625 -21.59375 C 8.8125 -21.164062 8.5 -20.691406 8.21875 -20.171875 C 7.9375 -19.660156 7.691406 -19.082031 7.484375 -18.4375 C 7.078125 -17.15625 6.875 -15.691406 6.875 -14.046875 Z M 6.875 -14.046875"/></g><g id="e"><path d="M 3.484375 -28.921875 C 4.628906 -29.054688 5.851562 -29.15625 7.15625 -29.21875 C 8.46875 -29.28125 9.851562 -29.3125 11.3125 -29.3125 C 13.15625 -29.3125 14.796875 -29.085938 16.234375 -28.640625 C 16.503906 -28.554688 16.75 -28.472656 16.96875 -28.390625 C 17.195312 -28.316406 17.425781 -28.222656 17.65625 -28.109375 C 17.882812 -28.003906 18.097656 -27.898438 18.296875 -27.796875 C 18.492188 -27.691406 18.691406 -27.578125 18.890625 -27.453125 C 19.097656 -27.335938 19.296875 -27.21875 19.484375 -27.09375 C 19.671875 -26.976562 19.859375 -26.851562 20.046875 -26.71875 C 21.078125 -25.863281 21.875 -24.835938 22.4375 -23.640625 C 22.96875 -22.441406 23.234375 -21.160156 23.234375 -19.796875 C 23.234375 -18.140625 22.910156 -16.664062 22.265625 -15.375 C 21.628906 -14.082031 20.738281 -12.984375 19.59375 -12.078125 C 19.039062 -11.648438 18.421875 -11.269531 17.734375 -10.9375 C 17.054688 -10.601562 16.332031 -10.316406 15.5625 -10.078125 C 14.039062 -9.648438 12.359375 -9.4375 10.515625 -9.4375 C 10.273438 -9.4375 10.03125 -9.4375 9.78125 -9.4375 C 9.53125 -9.4375 9.289062 -9.441406 9.0625 -9.453125 C 8.832031 -9.472656 8.613281 -9.484375 8.40625 -9.484375 L 8.40625 1 L 2.59375 1 L 2.59375 -28.796875 Z M 11 -14.59375 C 13.15625 -14.59375 14.796875 -15.046875 15.921875 -15.953125 C 16.960938 -16.804688 17.484375 -17.984375 17.484375 -19.484375 C 17.484375 -20.890625 16.988281 -22.007812 16 -22.84375 C 14.9375 -23.695312 13.347656 -24.125 11.234375 -24.125 C 10.992188 -24.125 10.757812 -24.125 10.53125 -24.125 C 10.3125 -24.125 10.09375 -24.113281 9.875 -24.09375 C 9.664062 -24.082031 9.453125 -24.078125 9.234375 -24.078125 C 8.972656 -24.078125 8.695312 -24.066406 8.40625 -24.046875 L 8.40625 -14.71875 L 9 -14.640625 C 9.1875 -14.640625 9.382812 -14.628906 9.59375 -14.609375 C 9.8125 -14.597656 10.039062 -14.59375 10.28125 -14.59375 C 10.519531 -14.59375 10.757812 -14.59375 11 -14.59375 Z M 11 -14.59375"/></g><g id="f"><path d="M 2.59375 0 L 2.59375 -29 L 8.40625 -29 L 8.40625 1 L 2.59375 1 Z M 2.59375 0"/></g><g id="g"><path d="M 0.40625 -29 L 22.40625 -29 L 22.40625 -23.640625 L 13.796875 -23.640625 L 13.796875 1 L 8 1 L 8 -23.640625 L -0.59375 -23.640625 L -0.59375 -29 Z M 0.40625 -29"/></g><g id="h"><path d="M 20.234375 1 L 2.59375 1 L 2.59375 -29 L 8.40625 -29 L 8.40625 -4.40625 L 21.234375 -4.40625 L 21.234375 1 Z M 20.234375 1"/></g><g id="i"><path d="M 3.59375 -29 L 21.40625 -29 L 21.40625 -23.71875 L 8.40625 -23.71875 L 8.40625 -17.203125 L 19.59375 -17.203125 L 19.59375 -12 L 8.40625 -12 L 8.40625 -4.28125 L 21.40625 -4.28125 L 21.40625 1 L 2.59375 1 L 2.59375 -29 Z M 3.59375 -29"/></g><g id="j"><path d="M 8.609375 -14.234375 L 0.046875 -25.40625 L -0.546875 -26.203125 L 0.25 -26.796875 L 3.40625 -29.15625 L 4.203125 -29.765625 L 4.8125 -28.953125 L 12.125 -18.71875 L 19.359375 -28.84375 L 19.96875 -29.640625 L 20.765625 -29.046875 L 23.734375 -26.796875 L 24.53125 -26.203125 L 23.921875 -25.40625 L 15.640625 -14.4375 L 24.734375 -2.5625 L 25.328125 -1.765625 L 24.53125 -1.15625 L 21.453125 1.203125 L 20.640625 1.796875 L 20.046875 1 L 12 -9.875 L 4.25 0.921875 L 3.640625 1.71875 L 2.84375 1.125 L -0.15625 -1.15625 L -0.953125 -1.765625 L -0.359375 -2.5625 Z M 8.609375 -14.234375"/></g><g id="k"><path d="M 20.203125 -11.765625 L 8.40625 -11.765625 L 8.40625 1 L 2.59375 1 L 2.59375 -29 L 8.40625 -29 L 8.40625 -17.046875 L 20.203125 -17.046875 L 20.203125 -29 L 26 -29 L 26 1 L 20.203125 1 Z M 20.203125 -11.765625"/></g><g id="l"><path d="M 8.203125 -19.15625 L 8.203125 1 L 2.59375 1 L 2.59375 -29 L 9.234375 -29 L 9.515625 -28.484375 L 20 -8.71875 L 20 -29 L 25.59375 -29 L 25.59375 1 L 19.046875 1 L 18.765625 0.484375 Z M 8.203125 -19.15625"/></g><g id="m"><path d="M 14.953125 -15.84375 L 25.359375 -15.84375 L 25.359375 1 L 20 1 L 20 -0.765625 C 19.382812 -0.359375 18.734375 0.015625 18.046875 0.359375 C 16.578125 1.109375 14.945312 1.484375 13.15625 1.484375 C 11.375 1.484375 9.734375 1.132812 8.234375 0.4375 C 7.753906 0.195312 7.285156 -0.0703125 6.828125 -0.375 C 6.378906 -0.6875 5.945312 -1.023438 5.53125 -1.390625 C 5.125 -1.765625 4.75 -2.164062 4.40625 -2.59375 C 3.332031 -3.90625 2.488281 -5.46875 1.875 -7.28125 C 1.582031 -8.15625 1.363281 -9.097656 1.21875 -10.109375 C 1.070312 -11.128906 1 -12.1875 1 -13.28125 C 1 -15.625 1.304688 -17.769531 1.921875 -19.71875 C 2.535156 -21.695312 3.425781 -23.40625 4.59375 -24.84375 C 4.96875 -25.34375 5.390625 -25.800781 5.859375 -26.21875 C 6.328125 -26.632812 6.8125 -27.015625 7.3125 -27.359375 C 7.820312 -27.703125 8.367188 -28.007812 8.953125 -28.28125 C 10.660156 -29.082031 12.609375 -29.484375 14.796875 -29.484375 C 16.660156 -29.484375 18.316406 -29.253906 19.765625 -28.796875 C 19.921875 -28.742188 20.078125 -28.691406 20.234375 -28.640625 C 20.398438 -28.585938 20.554688 -28.535156 20.703125 -28.484375 C 20.847656 -28.429688 20.992188 -28.367188 21.140625 -28.296875 C 21.285156 -28.234375 21.4375 -28.175781 21.59375 -28.125 C 21.757812 -28.070312 21.914062 -28.007812 22.0625 -27.9375 C 22.207031 -27.875 22.347656 -27.804688 22.484375 -27.734375 C 22.617188 -27.671875 22.757812 -27.597656 22.90625 -27.515625 C 23.050781 -27.441406 23.195312 -27.367188 23.34375 -27.296875 C 23.488281 -27.234375 23.628906 -27.160156 23.765625 -27.078125 L 24.5625 -26.640625 L 24.203125 -25.796875 L 22.796875 -22.640625 L 22.359375 -21.640625 L 21.40625 -22.15625 C 21.050781 -22.34375 20.691406 -22.519531 20.328125 -22.6875 C 19.972656 -22.863281 19.609375 -23.03125 19.234375 -23.1875 C 18.867188 -23.351562 18.507812 -23.488281 18.15625 -23.59375 C 17.625 -23.78125 17.0625 -23.921875 16.46875 -24.015625 C 15.882812 -24.109375 15.257812 -24.15625 14.59375 -24.15625 C 14.039062 -24.15625 13.507812 -24.101562 13 -24 C 12.488281 -23.894531 12.007812 -23.722656 11.5625 -23.484375 C 10.625 -23.054688 9.820312 -22.414062 9.15625 -21.5625 C 8.46875 -20.65625 7.910156 -19.535156 7.484375 -18.203125 C 7.078125 -16.835938 6.875 -15.273438 6.875 -13.515625 C 6.875 -11.941406 7.0625 -10.539062 7.4375 -9.3125 C 7.8125 -8.113281 8.316406 -7.101562 8.953125 -6.28125 C 9.566406 -5.476562 10.300781 -4.878906 11.15625 -4.484375 C 11.582031 -4.265625 12.035156 -4.101562 12.515625 -4 C 12.992188 -3.894531 13.503906 -3.84375 14.046875 -3.84375 C 14.359375 -3.84375 14.675781 -3.859375 15 -3.890625 C 15.320312 -3.929688 15.628906 -3.992188 15.921875 -4.078125 C 16.210938 -4.160156 16.5 -4.25 16.78125 -4.34375 C 17.0625 -4.4375 17.320312 -4.550781 17.5625 -4.6875 C 17.71875 -4.757812 17.875 -4.84375 18.03125 -4.9375 C 18.195312 -5.03125 18.359375 -5.125 18.515625 -5.21875 C 18.679688 -5.3125 18.828125 -5.410156 18.953125 -5.515625 C 19.035156 -5.566406 19.128906 -5.632812 19.234375 -5.71875 C 19.347656 -5.800781 19.453125 -5.878906 19.546875 -5.953125 C 19.640625 -6.035156 19.710938 -6.101562 19.765625 -6.15625 L 19.765625 -10.84375 L 13.953125 -10.84375 L 13.953125 -15.84375 Z M 14.953125 -15.84375"/></g><g id="n"><path d="M 2.3125 -2.203125 C 2.3125 -2.546875 2.34375 -2.867188 2.40625 -3.171875 C 2.476562 -3.484375 2.585938 -3.785156 2.734375 -4.078125 C 2.878906 -4.367188 3.070312 -4.625 3.3125 -4.84375 C 3.957031 -5.53125 4.851562 -5.875 6 -5.875 C 6.957031 -5.875 7.8125 -5.515625 8.5625 -4.796875 C 9.3125 -4.078125 9.6875 -3.210938 9.6875 -2.203125 C 9.6875 -1.109375 9.320312 -0.226562 8.59375 0.4375 C 7.90625 1.132812 7.039062 1.484375 6 1.484375 C 5.007812 1.484375 4.144531 1.113281 3.40625 0.375 C 2.675781 -0.351562 2.3125 -1.210938 2.3125 -2.203125 Z M 2.3125 -2.203125"/></g></defs><path fill="#FFF" d="M-37.5 -37.5H412.5V412.5H-37.5z"/><path fill="#FFF" d="M-37.5 -37.5H412.5V412.5H-37.5z"/><g fill="#121212"><use x="37.5" y="247.788" xmlns:xlink="http://www.w3.org/1999/xlink" xlink:href="#a" xlink:type="simple" xlink:actuate="onLoad" xlink:show="embed"/></g><g fill="#121212"><use x="64.777" y="247.788" xmlns:xlink="http://www.w3.org/1999/xlink" xlink:href="#b" xlink:type="simple" xlink:actuate="onLoad" xlink:show="embed"/></g><g fill="#121212"><use x="91.495" y="247.788" xmlns:xlink="http://www.w3.org/1999/xlink" xlink:href="#c" xlink:type="simple" xlink:actuate="onLoad" xlink:show="embed"/></g><g fill="#121212"><use x="37.5" y="286.788" xmlns:xlink="http://www.w3.org/1999/xlink" xlink:href="#d" xlink:type="simple" xlink:actuate="onLoad" xlink:show="embed"/></g><g fill="#121212"><use x="61.258" y="286.788" xmlns:xlink="http://www.w3.org/1999/xlink" xlink:href="#b" xlink:type="simple" xlink:actuate="onLoad" xlink:show="embed"/></g><g fill="#121212"><use x="87.975" y="286.788" xmlns:xlink="http://www.w3.org/1999/xlink" xlink:href="#e" xlink:type="simple" xlink:actuate="onLoad" xlink:show="embed"/></g><g fill="#121212"><use x="111.213" y="286.788" xmlns:xlink="http://www.w3.org/1999/xlink" xlink:href="#f" xlink:type="simple" xlink:actuate="onLoad" xlink:show="embed"/></g><g fill="#121212"><use x="122.212" y="286.788" xmlns:xlink="http://www.w3.org/1999/xlink" xlink:href="#g" xlink:type="simple" xlink:actuate="onLoad" xlink:show="embed"/></g><g fill="#121212"><use x="144.009" y="286.788" xmlns:xlink="http://www.w3.org/1999/xlink" xlink:href="#b" xlink:type="simple" xlink:actuate="onLoad" xlink:show="embed"/></g><g fill="#121212"><use x="170.727" y="286.788" xmlns:xlink="http://www.w3.org/1999/xlink" xlink:href="#h" xlink:type="simple" xlink:actuate="onLoad" xlink:show="embed"/></g><g fill="#121212"><use x="37.5" y="325.788" xmlns:xlink="http://www.w3.org/1999/xlink" xlink:href="#i" xlink:type="simple" xlink:actuate="onLoad" xlink:show="embed"/></g><g fill="#121212"><use x="59.698" y="325.788" xmlns:xlink="http://www.w3.org/1999/xlink" xlink:href="#j" xlink:type="simple" xlink:actuate="onLoad" xlink:show="embed"/></g><g fill="#121212"><use x="83.975" y="325.788" xmlns:xlink="http://www.w3.org/1999/xlink" xlink:href="#d" xlink:type="simple" xlink:actuate="onLoad" xlink:show="embed"/></g><g fill="#121212"><use x="107.733" y="325.788" xmlns:xlink="http://www.w3.org/1999/xlink" xlink:href="#k" xlink:type="simple" xlink:actuate="onLoad" xlink:show="embed"/></g><g fill="#121212"><use x="136.33" y="325.788" xmlns:xlink="http://www.w3.org/1999/xlink" xlink:href="#b" xlink:type="simple" xlink:actuate="onLoad" xlink:show="embed"/></g><g fill="#121212"><use x="163.048" y="325.788" xmlns:xlink="http://www.w3.org/1999/xlink" xlink:href="#l" xlink:type="simple" xlink:actuate="onLoad" xlink:show="embed"/></g><g fill="#121212"><use x="191.245" y="325.788" xmlns:xlink="http://www.w3.org/1999/xlink" xlink:href="#m" xlink:type="simple" xlink:actuate="onLoad" xlink:show="embed"/></g><g fill="#121212"><use x="218.202" y="325.788" xmlns:xlink="http://www.w3.org/1999/xlink" xlink:href="#i" xlink:type="simple" xlink:actuate="onLoad" xlink:show="embed"/></g><g fill="#121212"><use x="240.4" y="325.788" xmlns:xlink="http://www.w3.org/1999/xlink" xlink:href="#n" xlink:type="simple" xlink:actuate="onLoad" xlink:show="embed"/></g></svg>