<svg width="273" height="113" xmlns="http://www.w3.org/2000/svg" xmlns:xlink="http://www.w3.org/1999/xlink" version="1.0">
 <defs>
  <g id="a">
   <path id="svg_1" d="m2.51563,-20.96875c0.23828,-0.01953 0.47265,-0.03516 0.70312,-0.04688c0.22656,-0.01953 0.45313,-0.03906 0.67188,-0.0625c0.22656,-0.01953 0.45312,-0.03906 0.67187,-0.0625c0.22656,-0.01953 0.45703,-0.03125 0.6875,-0.03125c0.86328,-0.05078 1.86719,-0.07812 3.01563,-0.07812c1.83203,0 3.42578,0.28906 4.78125,0.85937c1.35156,0.58594 2.48437,1.39844 3.39062,2.4375c0.89453,1.01172 1.55469,2.19532 1.98438,3.54688c0.41406,1.33594 0.625,2.74609 0.625,4.23437c0,1.48047 -0.21094,2.89063 -0.625,4.23438c-0.10547,0.27344 -0.21094,0.53906 -0.3125,0.79687c-0.10547,0.26172 -0.21875,0.51172 -0.34375,0.75c-0.125,0.24219 -0.26172,0.48047 -0.40625,0.71875c-0.14844,0.23047 -0.29688,0.45313 -0.45313,0.67188c-0.15625,0.21875 -0.32812,0.4375 -0.51562,0.65625c-0.91797,1.02344 -2.07813,1.83594 -3.48438,2.4375c-1.39844,0.57031 -3.04687,0.85938 -4.95312,0.85938c-0.19922,0 -0.38672,0 -0.5625,0c-0.16797,0 -0.33985,0 -0.51563,0c-0.17969,0 -0.34375,-0.00782 -0.5,-0.01563c-0.15625,-0.01172 -0.3125,-0.01562 -0.46875,-0.01562c-0.14844,0 -0.29687,-0.00782 -0.45312,-0.01563c-0.15625,0 -0.30469,-0.01172 -0.4375,-0.03125c-0.83594,-0.04297 -1.66797,-0.10937 -2.5,-0.20312l-0.625,-0.09375l0,-21.45313l0.625,-0.09375zm5.65625,3.54687c-0.27344,0 -0.53125,0.00782 -0.78125,0.01563c-0.25,0 -0.48047,0 -0.6875,0c-0.21875,0.02344 -0.42188,0.04297 -0.60938,0.0625l0,14.39062c0.05078,0 0.10156,0 0.15625,0c0.05078,0 0.09766,0.00782 0.14063,0.01563c0.05078,0.01172 0.09375,0.01562 0.125,0.01562c0.03906,0 0.09375,0 0.15625,0c0.44531,0.01172 0.89843,0.01563 1.35937,0.01563c0.25,0 0.48438,-0.00391 0.70313,-0.01563c0.22656,-0.01953 0.44531,-0.04687 0.65625,-0.07812c0.21875,-0.03125 0.42578,-0.0625 0.625,-0.09375c0.20703,-0.03906 0.39843,-0.08594 0.57812,-0.14063c0.1875,-0.0625 0.35938,-0.13281 0.51563,-0.21875c0.85156,-0.34375 1.54687,-0.82812 2.07812,-1.45312c0.53906,-0.61328 0.94141,-1.36328 1.20313,-2.25c0.26953,-0.91406 0.40625,-1.92188 0.40625,-3.01563c0,-0.96875 -0.13672,-1.89843 -0.40625,-2.79687c-0.27344,-0.86328 -0.67188,-1.63281 -1.20313,-2.3125c-0.27344,-0.33203 -0.57422,-0.62891 -0.90625,-0.89063c-0.33594,-0.25781 -0.71484,-0.48437 -1.14062,-0.67187c-0.83594,-0.38281 -1.82422,-0.57813 -2.96875,-0.57813zm0,0"/>
  </g>
  <g id="b">
   <path id="svg_2" d="m-0.34375,-0.98438l7.9375,-19.57812l0.1875,-0.46875l4,0l0.17188,0.46875l7.82812,19.57812l0.26563,0.67188l-0.67188,0.25l-2.53125,1.01563l-0.65625,0.29687l-0.26562,-0.70312l-2.09375,-5.32813l-8.40625,0l-2.07813,5.28125l-0.26562,0.6875l-0.67188,-0.28125l-2.34375,-0.96875l-0.70313,-0.25l0.29688,-0.67188zm7.21875,-7.57812l5.48438,0l-2.73438,-7.01563l-2.75,7.01563zm0,0"/>
  </g>
  <g id="c">
   <path id="svg_3" d="m0.71875,-10.17188c0,-1.57031 0.23438,-3.03515 0.70313,-4.39062c0.45703,-1.36328 1.13281,-2.55078 2.03125,-3.5625c0.88281,-1.01953 1.96875,-1.8125 3.25,-2.375c0.63281,-0.28906 1.3125,-0.50781 2.03125,-0.65625c0.72656,-0.14453 1.48828,-0.21875 2.28125,-0.21875c0.78906,0 1.55078,0.07422 2.28125,0.21875c0.72656,0.14844 1.41015,0.375 2.04687,0.6875c0.63281,0.29297 1.22266,0.64062 1.76563,1.04687c0.53906,0.39844 1.03515,0.85938 1.48437,1.39063c0.88281,1 1.56641,2.17969 2.04688,3.53125c0.46875,1.35547 0.70312,2.79687 0.70312,4.32812c0,1.52344 -0.23437,2.96094 -0.70312,4.3125c-0.14844,0.44922 -0.32422,0.88672 -0.53125,1.3125c-0.19922,0.41797 -0.42969,0.82032 -0.6875,1.20313c-0.25,0.375 -0.51563,0.73437 -0.79688,1.07812c-0.44922,0.52344 -0.94922,0.98438 -1.5,1.39063c-0.55469,0.40625 -1.13672,0.75781 -1.75,1.04688c-1.28125,0.60156 -2.73437,0.90625 -4.35937,0.90625c-1.625,0 -3.07422,-0.30469 -4.34375,-0.90625c-0.3125,-0.15625 -0.61719,-0.31641 -0.90625,-0.48438c-0.28125,-0.17578 -0.5586,-0.36328 -0.82813,-0.5625c-0.27344,-0.20703 -0.53906,-0.42578 -0.79687,-0.65625c-0.25,-0.23828 -0.48047,-0.48438 -0.6875,-0.73438c-0.89844,-1.01953 -1.57422,-2.21875 -2.03125,-3.59375c-0.46875,-1.35156 -0.70313,-2.78906 -0.70313,-4.3125zm4.26563,0c0,0.48047 0.03125,0.96094 0.09375,1.4375c0.07031,0.46875 0.17578,0.9336 0.3125,1.39063c0.15625,0.44922 0.32812,0.87109 0.51562,1.26562c0.19531,0.39844 0.42969,0.77344 0.70313,1.125c0.08203,0.11719 0.17187,0.21875 0.26562,0.3125c0.09375,0.09375 0.1875,0.19532 0.28125,0.29688c0.10156,0.09375 0.20703,0.1875 0.3125,0.28125c0.10156,0.09375 0.21094,0.18359 0.32813,0.26562c0.11328,0.07422 0.22656,0.15235 0.34375,0.23438c0.125,0.07422 0.24218,0.15234 0.35937,0.23437c0.72656,0.38672 1.56641,0.57813 2.51563,0.57813c0.35156,0 0.67968,-0.01953 0.98437,-0.0625c0.3125,-0.03906 0.60156,-0.10156 0.875,-0.1875c0.26953,-0.08203 0.51953,-0.1875 0.75,-0.3125c0.75781,-0.36328 1.39063,-0.86328 1.89063,-1.5c0.17578,-0.21875 0.33203,-0.44531 0.46875,-0.6875c0.13281,-0.23828 0.25781,-0.5 0.375,-0.78125c0.11328,-0.28125 0.21875,-0.56641 0.3125,-0.85938c0.26953,-0.94531 0.40625,-1.95703 0.40625,-3.03125c0,-0.96875 -0.14844,-1.89843 -0.4375,-2.79687c-0.27344,-0.88281 -0.67969,-1.67578 -1.21875,-2.375c-0.52344,-0.67578 -1.14844,-1.21875 -1.875,-1.625c-0.74219,-0.38281 -1.58594,-0.57813 -2.53125,-0.57813c-0.23047,0 -0.46485,0.01172 -0.70313,0.03125c-0.23047,0.02344 -0.44922,0.0586 -0.65625,0.10938c-0.21094,0.04297 -0.41406,0.10156 -0.60937,0.17187c-0.1875,0.0625 -0.3711,0.14063 -0.54688,0.23438c-0.38672,0.17969 -0.73437,0.39062 -1.04687,0.64062c-0.3125,0.25 -0.59375,0.54297 -0.84375,0.875c-0.52344,0.65625 -0.92969,1.42969 -1.21875,2.3125c-0.27344,0.92969 -0.40625,1.92969 -0.40625,3zm0,0"/>
  </g>
  <g id="d">
   <path id="svg_4" d="m4.98438,-10.17188c0,0.38672 0.01562,0.75782 0.04687,1.10938c0.03125,0.35547 0.07813,0.69922 0.14063,1.03125c0.07031,0.32422 0.15625,0.64062 0.25,0.95312c0.28906,0.90625 0.69531,1.6836 1.21875,2.32813c0.17578,0.21094 0.35156,0.40625 0.53125,0.59375c0.1875,0.17969 0.38281,0.33984 0.59375,0.48437c0.21875,0.14844 0.4414,0.27735 0.67187,0.39063c0.69531,0.33594 1.46094,0.5 2.29688,0.5c0.86328,0 1.60937,-0.09766 2.23437,-0.29688c0.65625,-0.20703 1.28125,-0.49218 1.875,-0.85937l0.76563,-0.4375l0.28125,0.8125l0.84375,2.28125l0.23437,0.60937l-0.5625,0.29688c-0.77344,0.40625 -1.64062,0.75391 -2.60937,1.04688c-0.98047,0.26953 -2.10938,0.40625 -3.39063,0.40625c-1.42969,0 -2.73437,-0.26563 -3.92187,-0.79688c-1.1875,-0.51953 -2.21875,-1.26953 -3.09375,-2.25c-0.85547,-0.96875 -1.51172,-2.14063 -1.96875,-3.51563c-0.46875,-1.375 -0.70313,-2.89843 -0.70313,-4.57812c0,-1.625 0.23438,-3.125 0.70313,-4.5c0.45703,-1.38281 1.125,-2.58203 2,-3.59375c0.88281,-1.01953 1.94531,-1.8125 3.1875,-2.375c0.625,-0.26953 1.28125,-0.47656 1.96875,-0.625c0.69531,-0.14453 1.42578,-0.21875 2.1875,-0.21875c1.03906,0 1.97656,0.10156 2.8125,0.29687c0.82031,0.1875 1.61328,0.46094 2.375,0.8125l0.57812,0.28125l-0.20312,0.64063l-0.84375,2.32812l-0.28125,0.75l-0.73438,-0.34375c-0.5625,-0.28906 -1.13281,-0.51562 -1.70312,-0.67187c-0.19922,-0.0625 -0.40235,-0.10156 -0.60938,-0.125c-0.19922,-0.03125 -0.41797,-0.05469 -0.65625,-0.07813c-0.24219,-0.01953 -0.49609,-0.03125 -0.76562,-0.03125c-0.40625,0 -0.80469,0.04297 -1.1875,0.125c-0.38672,0.07422 -0.75782,0.1875 -1.10938,0.34375c-0.34375,0.15625 -0.66797,0.35157 -0.96875,0.57813c-0.30469,0.23047 -0.57812,0.5 -0.82812,0.8125c-0.25,0.30469 -0.48047,0.64844 -0.6875,1.03125c-0.19922,0.375 -0.375,0.79297 -0.53125,1.25c-0.29297,0.92969 -0.4375,1.99609 -0.4375,3.20312zm0,0"/>
  </g>
  <g id="e">
   <path id="svg_5" d="m2.51563,-20.96875c0.83203,-0.09375 1.72265,-0.16016 2.67187,-0.20313c0.94531,-0.05078 1.95313,-0.07812 3.01563,-0.07812c1.33203,0 2.52343,0.16406 3.57812,0.48437c0.1875,0.0625 0.36328,0.125 0.53125,0.1875c0.16406,0.05469 0.32813,0.1211 0.48438,0.20313c0.16406,0.07422 0.32031,0.15234 0.46875,0.23437c0.14453,0.07422 0.28906,0.15235 0.4375,0.23438c0.14453,0.08594 0.28515,0.17187 0.42187,0.26562c0.13281,0.08594 0.26953,0.17188 0.40625,0.26563c0.75,0.625 1.32813,1.37109 1.73438,2.23437c0.38281,0.875 0.57812,1.80469 0.57812,2.78125c0,1.19922 -0.23437,2.26563 -0.70312,3.20313c-0.46094,0.9375 -1.10547,1.73437 -1.9375,2.39062c-0.40625,0.3125 -0.85547,0.59375 -1.34375,0.84375c-0.49219,0.24219 -1.01563,0.44532 -1.57813,0.60938c-1.10547,0.3125 -2.32422,0.46875 -3.65625,0.46875c-0.17969,0 -0.35937,0 -0.54687,0c-0.17969,0 -0.35157,-0.00391 -0.51563,-0.01563c-0.15625,-0.00781 -0.3125,-0.01562 -0.46875,-0.01562l0,7.59375l-4.20312,0l0,-21.59375l0.625,-0.09375zm5.45312,10.39062c1.57031,0 2.76563,-0.33203 3.57813,-1c0.75,-0.61328 1.125,-1.46093 1.125,-2.54687c0,-1.01953 -0.35938,-1.83203 -1.07813,-2.4375c-0.77344,-0.61328 -1.91797,-0.92188 -3.4375,-0.92188c-0.17969,0 -0.35156,0 -0.51562,0c-0.16797,0 -0.32813,0.00782 -0.48438,0.01563c-0.14844,0.01172 -0.29687,0.01562 -0.45312,0.01562c-0.19922,0 -0.40235,0.01172 -0.60938,0.03125l0,6.75l0.4375,0.0625c0.13281,0 0.27344,0.00782 0.42188,0.01563c0.15625,0.01172 0.32031,0.01562 0.5,0.01562c0.17578,0 0.34765,0 0.51562,0zm0,0"/>
  </g>
  <g id="f">
   <path id="svg_6" d="m1.89063,0l0,-21.03125l4.20312,0l0,21.75l-4.20312,0l0,-0.71875zm0,0"/>
  </g>
  <g id="g">
   <path id="svg_7" d="m0.29688,-21.03125l15.9375,0l0,3.89062l-6.23438,0l0,17.85938l-4.20312,0l0,-17.85938l-6.23438,0l0,-3.89062l0.73438,0zm0,0"/>
  </g>
  <g id="h">
   <path id="svg_8" d="m14.67188,0.71875l-12.78125,0l0,-21.75l4.20312,0l0,17.84375l9.3125,0l0,3.90625l-0.73437,0zm0,0"/>
  </g>
  <g id="i">
   <path id="svg_9" d="m2.60938,-21.03125l12.90625,0l0,3.82812l-9.42188,0l0,4.73438l8.10938,0l0,3.76562l-8.10938,0l0,5.59375l9.42188,0l0,3.82813l-13.625,0l0,-21.75l0.71875,0zm0,0"/>
  </g>
  <g id="j">
   <path id="svg_10" d="m6.23438,-10.32813l-6.20313,-8.09375l-0.4375,-0.57812l0.57813,-0.4375l2.29687,-1.70313l0.57813,-0.4375l0.4375,0.57813l5.3125,7.42187l5.23437,-7.32812l0.4375,-0.57813l0.57813,0.4375l2.15625,1.60938l0.57812,0.4375l-0.4375,0.57812l-6,7.95313l6.57813,8.60937l0.4375,0.57813l-0.57813,0.4375l-2.23437,1.71875l-0.57813,0.4375l-0.4375,-0.59375l-5.82812,-7.875l-5.625,7.82813l-0.4375,0.57812l-0.57813,-0.4375l-2.17188,-1.65625l-0.57812,-0.4375l0.42187,-0.57813l6.50001,-8.46875zm0,0"/>
  </g>
  <g id="k">
   <path id="svg_11" d="m14.64063,-8.53125l-8.54688,0l0,9.25l-4.20312,0l0,-21.75l4.20312,0l0,8.67187l8.54688,0l0,-8.67187l4.20312,0l0,21.75l-4.20312,0l0,-9.25zm0,0"/>
  </g>
  <g id="l">
   <path id="svg_12" d="m5.9375,-13.89063l0,14.60938l-4.04687,0l0,-21.75l4.8125,0l0.20312,0.39062l7.59375,14.3125l0,-14.70312l4.0625,0l0,21.75l-4.76562,0l-0.20313,-0.375l-7.65625,-14.23438zm0,0"/>
  </g>
  <g id="m">
   <path id="svg_13" d="m10.84375,-11.48438l7.54688,0l0,12.20313l-3.89063,0l0,-1.26563c-0.44922,0.29297 -0.92187,0.56251 -1.42187,0.81251c-1.0625,0.53906 -2.24219,0.8125 -3.53125,0.8125c-1.30469,0 -2.4961,-0.25782 -3.57813,-0.76563c-0.34375,-0.16797 -0.68359,-0.35938 -1.01562,-0.57813c-0.32422,-0.22656 -0.63672,-0.47656 -0.9375,-0.75c-0.30469,-0.26953 -0.57813,-0.5625 -0.82813,-0.875c-0.77344,-0.94531 -1.38281,-2.07812 -1.82812,-3.39062c-0.21094,-0.63281 -0.3711,-1.31641 -0.48438,-2.04688c-0.10547,-0.73828 -0.15625,-1.5039 -0.15625,-2.29687c0,-1.70703 0.22266,-3.26563 0.67188,-4.67188c0.44531,-1.42578 1.09375,-2.66406 1.9375,-3.71875c0.26953,-0.36328 0.57031,-0.6914 0.90625,-0.98437c0.34375,-0.30078 0.69531,-0.57813 1.0625,-0.82813c0.375,-0.25781 0.77343,-0.48437 1.20312,-0.67187c1.23828,-0.58203 2.64844,-0.875 4.23438,-0.875c1.35156,0 2.55078,0.16797 3.59375,0.5c0.11328,0.03125 0.22656,0.07031 0.34375,0.10937c0.11328,0.04297 0.22265,0.08594 0.32812,0.125c0.11328,0.03125 0.22266,0.07422 0.32813,0.125c0.10156,0.05469 0.21093,0.10157 0.32812,0.14063c0.11328,0.03125 0.22266,0.07422 0.32813,0.125c0.11328,0.04297 0.21875,0.08984 0.3125,0.14062c0.09375,0.05469 0.1914,0.10938 0.29687,0.17188c0.11328,0.05469 0.22266,0.10547 0.32813,0.15625c0.10156,0.04297 0.20312,0.08984 0.29687,0.14062l0.59375,0.32813l-0.26562,0.60937l-1.01563,2.29688l-0.3125,0.71875l-0.70312,-0.375c-0.25,-0.13281 -0.50782,-0.26563 -0.76563,-0.39063c-0.26172,-0.125 -0.52734,-0.24218 -0.79687,-0.35937c-0.27344,-0.125 -0.53125,-0.22266 -0.78125,-0.29688c-0.38672,-0.13281 -0.79297,-0.23437 -1.21875,-0.29687c-0.42969,-0.07031 -0.88672,-0.10938 -1.375,-0.10938c-0.40625,0 -0.79297,0.04297 -1.15625,0.125c-0.36719,0.07422 -0.71485,0.19922 -1.04688,0.375c-0.67969,0.30469 -1.25781,0.76563 -1.73437,1.39063c-0.5,0.65625 -0.90625,1.46875 -1.21875,2.4375c-0.29297,0.98047 -0.4375,2.10937 -0.4375,3.39062c0,1.13672 0.13281,2.15235 0.40625,3.04688c0.26953,0.86719 0.64062,1.60156 1.10937,2.20312c0.4375,0.57422 0.96875,1.00782 1.59375,1.29688c0.3125,0.15625 0.64063,0.27734 0.98438,0.35937c0.34375,0.07422 0.70703,0.10938 1.09375,0.10938c0.23828,0 0.47265,-0.01563 0.70312,-0.04688c0.22656,-0.03125 0.45313,-0.07031 0.67188,-0.125c0.20703,-0.0625 0.41015,-0.125 0.60937,-0.1875c0.20703,-0.07031 0.39844,-0.15625 0.57813,-0.25c0.11328,-0.0625 0.22656,-0.125 0.34375,-0.1875c0.11328,-0.07031 0.22656,-0.14062 0.34375,-0.20312c0.11328,-0.07031 0.22265,-0.14453 0.32812,-0.21875c0.05078,-0.03906 0.11328,-0.08594 0.1875,-0.14063c0.08203,-0.0625 0.15625,-0.11718 0.21875,-0.17187c0.07031,-0.0625 0.12891,-0.11328 0.17188,-0.15625l0,-3.39063l-4.20313,0l0,-3.625l0.71875,0zm0,0"/>
  </g>
  <g id="n">
   <path id="svg_14" d="m1.6875,-1.59375c0,-0.25 0.01953,-0.48438 0.0625,-0.70313c0.05078,-0.22656 0.12891,-0.44531 0.23438,-0.65625c0.10156,-0.21875 0.24218,-0.40625 0.42187,-0.5625c0.46875,-0.5 1.11328,-0.75 1.9375,-0.75c0.69531,0 1.31641,0.26172 1.85938,0.78125c0.53906,0.52344 0.8125,1.15235 0.8125,1.89063c0,0.79297 -0.26172,1.42969 -0.78125,1.90625c-0.5,0.50781 -1.13282,0.76563 -1.89063,0.76563c-0.71094,0 -1.32812,-0.26563 -1.85937,-0.79688c-0.53125,-0.53125 -0.79688,-1.15625 -0.79688,-1.875zm0,0"/>
  </g>
  <g id="o">
   <path id="svg_15" d="m12.75,-23.79688c2.13281,0 3.96094,0.52735 5.48438,1.57813c1.53125,1.05469 2.69531,2.48047 3.5,4.28125c0.8125,1.80469 1.21875,3.8125 1.21875,6.03125c0,2.23047 -0.40625,4.24609 -1.21875,6.04687c-0.80469,1.80469 -1.96875,3.23047 -3.5,4.28125c-1.52344,1.05469 -3.35157,1.57813 -5.48438,1.57813l-8.125,0c-0.59375,0 -1.08984,-0.19531 -1.48437,-0.59375c-0.39844,-0.39453 -0.59375,-0.89063 -0.59375,-1.48438l0,-19.64062c0,-0.59375 0.19531,-1.08594 0.59375,-1.48438c0.39453,-0.39453 0.89062,-0.59375 1.48437,-0.59375l8.125,0zm-0.34375,19.89063c2.03906,0 3.57031,-0.75391 4.59375,-2.26563c1.01953,-1.50781 1.53125,-3.42187 1.53125,-5.73437c0,-2.3125 -0.51562,-4.21875 -1.54687,-5.71875c-1.03125,-1.50781 -2.5586,-2.26563 -4.57813,-2.26563l-5.60937,0l0,15.98438l5.60937,0zm0,0"/>
  </g>
  <g id="p">
   <path id="svg_16" d="m19.20313,-22.64063c0.70703,0.36719 1.0625,0.94532 1.0625,1.73438c0,0.46875 -0.17188,0.93359 -0.51563,1.39062c-0.36719,0.48047 -0.82812,0.71875 -1.39062,0.71875c-0.38672,0 -0.77344,-0.10156 -1.15625,-0.3125c-1.11719,-0.51953 -2.32032,-0.78125 -3.60938,-0.78125c-1.58594,0 -2.96484,0.33594 -4.14062,1c-1.17969,0.66797 -2.08594,1.60938 -2.71875,2.82813c-0.63672,1.21094 -0.95313,2.59375 -0.95313,4.15625c0,2.67969 0.71875,4.71094 2.15625,6.09375c1.4375,1.38672 3.32031,2.07812 5.65625,2.07812c1.38281,0 2.58594,-0.25781 3.60938,-0.78125c0.40625,-0.1875 0.76953,-0.28125 1.09375,-0.28125c0.58203,0 1.07812,0.25 1.48437,0.75c0.34375,0.42969 0.51563,0.89063 0.51563,1.39063c0,0.36719 -0.09375,0.69922 -0.28125,1c-0.17969,0.29297 -0.4336,0.51562 -0.76563,0.67187c-1.77344,0.88672 -3.65625,1.32813 -5.65625,1.32813c-2.21875,0 -4.26172,-0.46875 -6.125,-1.40625c-1.85547,-0.94531 -3.33984,-2.33594 -4.45312,-4.17188c-1.10547,-1.83203 -1.65625,-4.05468 -1.65625,-6.67187c0,-2.3125 0.52343,-4.38281 1.57812,-6.21875c1.05078,-1.83203 2.50391,-3.26563 4.35938,-4.29688c1.86328,-1.03125 3.96093,-1.54687 6.29687,-1.54687c2.01953,0 3.89063,0.44531 5.60938,1.32812zm0,0"/>
  </g>
  <g id="q">
   <path id="svg_17" d="m20.29688,-3.125c0.26953,0.36719 0.40625,0.78125 0.40625,1.25c0,0.59375 -0.21875,1.08594 -0.65625,1.46875c-0.42969,0.38672 -0.88672,0.57813 -1.375,0.57813c-0.65625,0 -1.21485,-0.29688 -1.67188,-0.89063l-6.04687,-8.04688l-5.89063,7.98438c-0.44922,0.63672 -1.01562,0.95313 -1.70312,0.95313c-0.49219,0 -0.91797,-0.17969 -1.28125,-0.54688c-0.36719,-0.36328 -0.54688,-0.78125 -0.54688,-1.25c0,-0.5 0.17188,-0.96875 0.51563,-1.40625l6.5625,-8.875l-6.5625,-8.70313c-0.30469,-0.35156 -0.45313,-0.75781 -0.45313,-1.21875c0,-0.5625 0.21094,-1.04687 0.64063,-1.45312c0.4375,-0.41406 0.91406,-0.625 1.4375,-0.625c0.65625,0 1.21093,0.29687 1.67187,0.89062l5.98438,7.95313l5.84375,-7.78125c0.22656,-0.32031 0.48828,-0.56641 0.78125,-0.73438c0.28906,-0.16406 0.58593,-0.25 0.89062,-0.25c0.48828,0 0.92578,0.19922 1.3125,0.59375c0.38281,0.39844 0.57813,0.82813 0.57813,1.29688c0,0.4375 -0.14844,0.85156 -0.4375,1.23437l-6.625,8.73438l6.625,8.84375zm0,0"/>
  </g>
 </defs>
 <g>
  <title>Layer 1</title>
  <path id="svg_18" d="m96.00391,104.33984l-79.59766,0c-3.27734,0 -5.94922,-2.67187 -5.94922,-5.95312l0,-79.59766c0,-3.27734 2.67188,-5.94922 5.94922,-5.94922l79.59766,0c3.28125,0 5.95312,2.67188 5.95312,5.94922l0,79.59766c0,3.28125 -2.67187,5.95312 -5.95312,5.95312zm0,0"/>
  <g id="svg_19" fill="#121212">
   <use id="svg_20" xlink:show="embed" xlink:actuate="onLoad" xlink:type="simple" xlink:href="#a" y="39.279" x="109.898" xmlns:xlink="http://www.w3.org/1999/xlink"/>
  </g>
  <g id="svg_21" fill="#121212">
   <use id="svg_22" xlink:show="embed" xlink:actuate="onLoad" xlink:type="simple" xlink:href="#b" y="39.279" x="129.671" xmlns:xlink="http://www.w3.org/1999/xlink"/>
  </g>
  <g id="svg_23" fill="#121212">
   <use id="svg_24" xlink:show="embed" xlink:actuate="onLoad" xlink:type="simple" xlink:href="#c" y="39.279" x="149.037" xmlns:xlink="http://www.w3.org/1999/xlink"/>
  </g>
  <g id="svg_25" fill="#121212">
   <use id="svg_26" xlink:show="embed" xlink:actuate="onLoad" xlink:type="simple" xlink:href="#d" y="67.029" x="109.898" xmlns:xlink="http://www.w3.org/1999/xlink"/>
  </g>
  <g id="svg_27" fill="#121212">
   <use id="svg_28" xlink:show="embed" xlink:actuate="onLoad" xlink:type="simple" xlink:href="#b" y="67.029" x="127.119" xmlns:xlink="http://www.w3.org/1999/xlink"/>
  </g>
  <g id="svg_29" fill="#121212">
   <use id="svg_30" xlink:show="embed" xlink:actuate="onLoad" xlink:type="simple" xlink:href="#e" y="67.029" x="146.486" xmlns:xlink="http://www.w3.org/1999/xlink"/>
  </g>
  <g id="svg_31" fill="#121212">
   <use id="svg_32" xlink:show="embed" xlink:actuate="onLoad" xlink:type="simple" xlink:href="#f" y="67.029" x="163.33" xmlns:xlink="http://www.w3.org/1999/xlink"/>
  </g>
  <g id="svg_33" fill="#121212">
   <use id="svg_34" xlink:show="embed" xlink:actuate="onLoad" xlink:type="simple" xlink:href="#g" y="67.029" x="171.303" xmlns:xlink="http://www.w3.org/1999/xlink"/>
  </g>
  <g id="svg_35" fill="#121212">
   <use id="svg_36" xlink:show="embed" xlink:actuate="onLoad" xlink:type="simple" xlink:href="#b" y="67.029" x="187.104" xmlns:xlink="http://www.w3.org/1999/xlink"/>
  </g>
  <g id="svg_37" fill="#121212">
   <use id="svg_38" xlink:show="embed" xlink:actuate="onLoad" xlink:type="simple" xlink:href="#h" y="67.029" x="206.471" xmlns:xlink="http://www.w3.org/1999/xlink"/>
  </g>
  <g id="svg_39" fill="#121212">
   <use id="svg_40" xlink:show="embed" xlink:actuate="onLoad" xlink:type="simple" xlink:href="#i" y="94.779" x="109.898" xmlns:xlink="http://www.w3.org/1999/xlink"/>
  </g>
  <g id="svg_41" fill="#121212">
   <use id="svg_42" xlink:show="embed" xlink:actuate="onLoad" xlink:type="simple" xlink:href="#j" y="94.779" x="125.989" xmlns:xlink="http://www.w3.org/1999/xlink"/>
  </g>
  <g id="svg_43" fill="#121212">
   <use id="svg_44" xlink:show="embed" xlink:actuate="onLoad" xlink:type="simple" xlink:href="#d" y="94.779" x="143.587" xmlns:xlink="http://www.w3.org/1999/xlink"/>
  </g>
  <g id="svg_45" fill="#121212">
   <use id="svg_46" xlink:show="embed" xlink:actuate="onLoad" xlink:type="simple" xlink:href="#k" y="94.779" x="160.808" xmlns:xlink="http://www.w3.org/1999/xlink"/>
  </g>
  <g id="svg_47" fill="#121212">
   <use id="svg_48" xlink:show="embed" xlink:actuate="onLoad" xlink:type="simple" xlink:href="#b" y="94.779" x="181.538" xmlns:xlink="http://www.w3.org/1999/xlink"/>
  </g>
  <g id="svg_49" fill="#121212">
   <use id="svg_50" xlink:show="embed" xlink:actuate="onLoad" xlink:type="simple" xlink:href="#l" y="94.779" x="200.904" xmlns:xlink="http://www.w3.org/1999/xlink"/>
  </g>
  <g id="svg_51" fill="#121212">
   <use id="svg_52" xlink:show="embed" xlink:actuate="onLoad" xlink:type="simple" xlink:href="#m" y="94.779" x="221.344" xmlns:xlink="http://www.w3.org/1999/xlink"/>
  </g>
  <g id="svg_53" fill="#121212">
   <use id="svg_54" xlink:show="embed" xlink:actuate="onLoad" xlink:type="simple" xlink:href="#i" y="94.779" x="240.885" xmlns:xlink="http://www.w3.org/1999/xlink"/>
  </g>
  <g id="svg_55" fill="#121212">
   <use id="svg_56" xlink:show="embed" xlink:actuate="onLoad" xlink:type="simple" xlink:href="#n" y="94.779" x="256.975" xmlns:xlink="http://www.w3.org/1999/xlink"/>
  </g>
  <g id="svg_57" fill="#FFF">
   <use id="svg_58" xlink:show="embed" xlink:actuate="onLoad" xlink:type="simple" xlink:href="#o" y="70.49" x="22.323" xmlns:xlink="http://www.w3.org/1999/xlink"/>
  </g>
  <g id="svg_59" fill="#FFF">
   <use id="svg_60" xlink:show="embed" xlink:actuate="onLoad" xlink:type="simple" xlink:href="#p" y="70.49" x="46.631" xmlns:xlink="http://www.w3.org/1999/xlink"/>
  </g>
  <g id="svg_61" fill="#FFF">
   <use id="svg_62" xlink:show="embed" xlink:actuate="onLoad" xlink:type="simple" xlink:href="#q" y="70.49" x="67.946" xmlns:xlink="http://www.w3.org/1999/xlink"/>
  </g>
 </g>
</svg>