<svg xmlns="http://www.w3.org/2000/svg" xmlns:xlink="http://www.w3.org/1999/xlink" width="375" viewBox="0 0 375 375" height="375" version="1.0"><defs><g id="a"><path d="M 2.515625 -20.96875 C 2.753906 -20.988281 2.988281 -21.003906 3.21875 -21.015625 C 3.445312 -21.035156 3.671875 -21.054688 3.890625 -21.078125 C 4.117188 -21.097656 4.34375 -21.117188 4.5625 -21.140625 C 4.789062 -21.160156 5.019531 -21.171875 5.25 -21.171875 C 6.113281 -21.222656 7.117188 -21.25 8.265625 -21.25 C 10.097656 -21.25 11.691406 -20.960938 13.046875 -20.390625 C 14.398438 -19.804688 15.53125 -18.992188 16.4375 -17.953125 C 17.332031 -16.941406 17.992188 -15.757812 18.421875 -14.40625 C 18.835938 -13.070312 19.046875 -11.660156 19.046875 -10.171875 C 19.046875 -8.691406 18.835938 -7.28125 18.421875 -5.9375 C 18.316406 -5.664062 18.210938 -5.398438 18.109375 -5.140625 C 18.003906 -4.878906 17.890625 -4.628906 17.765625 -4.390625 C 17.640625 -4.148438 17.503906 -3.910156 17.359375 -3.671875 C 17.210938 -3.441406 17.0625 -3.21875 16.90625 -3 C 16.75 -2.78125 16.578125 -2.5625 16.390625 -2.34375 C 15.472656 -1.320312 14.3125 -0.507812 12.90625 0.09375 C 11.507812 0.664062 9.859375 0.953125 7.953125 0.953125 C 7.753906 0.953125 7.566406 0.953125 7.390625 0.953125 C 7.222656 0.953125 7.050781 0.953125 6.875 0.953125 C 6.695312 0.953125 6.53125 0.945312 6.375 0.9375 C 6.21875 0.925781 6.0625 0.921875 5.90625 0.921875 C 5.757812 0.921875 5.609375 0.914062 5.453125 0.90625 C 5.296875 0.90625 5.148438 0.894531 5.015625 0.875 C 4.179688 0.832031 3.347656 0.765625 2.515625 0.671875 L 1.890625 0.578125 L 1.890625 -20.875 Z M 8.171875 -17.421875 C 7.898438 -17.421875 7.640625 -17.414062 7.390625 -17.40625 C 7.140625 -17.40625 6.910156 -17.40625 6.703125 -17.40625 C 6.484375 -17.382812 6.28125 -17.363281 6.09375 -17.34375 L 6.09375 -2.953125 C 6.144531 -2.953125 6.195312 -2.953125 6.25 -2.953125 C 6.300781 -2.953125 6.347656 -2.945312 6.390625 -2.9375 C 6.441406 -2.925781 6.484375 -2.921875 6.515625 -2.921875 C 6.554688 -2.921875 6.609375 -2.921875 6.671875 -2.921875 C 7.117188 -2.910156 7.570312 -2.90625 8.03125 -2.90625 C 8.28125 -2.90625 8.515625 -2.910156 8.734375 -2.921875 C 8.960938 -2.941406 9.179688 -2.96875 9.390625 -3 C 9.609375 -3.03125 9.816406 -3.0625 10.015625 -3.09375 C 10.222656 -3.132812 10.414062 -3.179688 10.59375 -3.234375 C 10.78125 -3.296875 10.953125 -3.367188 11.109375 -3.453125 C 11.960938 -3.796875 12.65625 -4.28125 13.1875 -4.90625 C 13.726562 -5.519531 14.128906 -6.269531 14.390625 -7.15625 C 14.660156 -8.070312 14.796875 -9.078125 14.796875 -10.171875 C 14.796875 -11.140625 14.660156 -12.070312 14.390625 -12.96875 C 14.117188 -13.832031 13.71875 -14.601562 13.1875 -15.28125 C 12.914062 -15.613281 12.613281 -15.910156 12.28125 -16.171875 C 11.945312 -16.429688 11.566406 -16.65625 11.140625 -16.84375 C 10.304688 -17.226562 9.316406 -17.421875 8.171875 -17.421875 Z M 8.171875 -17.421875"/></g><g id="b"><path d="M -0.34375 -0.984375 L 7.59375 -20.5625 L 7.78125 -21.03125 L 11.78125 -21.03125 L 11.953125 -20.5625 L 19.78125 -0.984375 L 20.046875 -0.3125 L 19.375 -0.0625 L 16.84375 0.953125 L 16.1875 1.25 L 15.921875 0.546875 L 13.828125 -4.78125 L 5.421875 -4.78125 L 3.34375 0.5 L 3.078125 1.1875 L 2.40625 0.90625 L 0.0625 -0.0625 L -0.640625 -0.3125 Z M 6.875 -8.5625 L 12.359375 -8.5625 L 9.625 -15.578125 Z M 6.875 -8.5625"/></g><g id="c"><path d="M 0.71875 -10.171875 C 0.71875 -11.742188 0.953125 -13.207031 1.421875 -14.5625 C 1.878906 -15.925781 2.554688 -17.113281 3.453125 -18.125 C 4.335938 -19.144531 5.421875 -19.9375 6.703125 -20.5 C 7.335938 -20.789062 8.015625 -21.007812 8.734375 -21.15625 C 9.460938 -21.300781 10.222656 -21.375 11.015625 -21.375 C 11.804688 -21.375 12.566406 -21.300781 13.296875 -21.15625 C 14.023438 -21.007812 14.707031 -20.78125 15.34375 -20.46875 C 15.976562 -20.175781 16.566406 -19.828125 17.109375 -19.421875 C 17.648438 -19.023438 18.144531 -18.5625 18.59375 -18.03125 C 19.476562 -17.03125 20.160156 -15.851562 20.640625 -14.5 C 21.109375 -13.144531 21.34375 -11.703125 21.34375 -10.171875 C 21.34375 -8.648438 21.109375 -7.210938 20.640625 -5.859375 C 20.492188 -5.410156 20.316406 -4.972656 20.109375 -4.546875 C 19.910156 -4.128906 19.679688 -3.726562 19.421875 -3.34375 C 19.171875 -2.96875 18.90625 -2.609375 18.625 -2.265625 C 18.175781 -1.742188 17.675781 -1.28125 17.125 -0.875 C 16.570312 -0.46875 15.988281 -0.117188 15.375 0.171875 C 14.09375 0.773438 12.640625 1.078125 11.015625 1.078125 C 9.390625 1.078125 7.941406 0.773438 6.671875 0.171875 C 6.359375 0.015625 6.054688 -0.144531 5.765625 -0.3125 C 5.484375 -0.488281 5.207031 -0.675781 4.9375 -0.875 C 4.664062 -1.082031 4.398438 -1.300781 4.140625 -1.53125 C 3.890625 -1.769531 3.660156 -2.015625 3.453125 -2.265625 C 2.554688 -3.285156 1.878906 -4.484375 1.421875 -5.859375 C 0.953125 -7.210938 0.71875 -8.648438 0.71875 -10.171875 Z M 4.984375 -10.171875 C 4.984375 -9.691406 5.015625 -9.210938 5.078125 -8.734375 C 5.148438 -8.265625 5.253906 -7.800781 5.390625 -7.34375 C 5.546875 -6.894531 5.71875 -6.472656 5.90625 -6.078125 C 6.101562 -5.679688 6.335938 -5.304688 6.609375 -4.953125 C 6.691406 -4.835938 6.78125 -4.734375 6.875 -4.640625 C 6.96875 -4.546875 7.0625 -4.445312 7.15625 -4.34375 C 7.257812 -4.25 7.363281 -4.15625 7.46875 -4.0625 C 7.570312 -3.96875 7.679688 -3.878906 7.796875 -3.796875 C 7.910156 -3.722656 8.023438 -3.644531 8.140625 -3.5625 C 8.265625 -3.488281 8.382812 -3.410156 8.5 -3.328125 C 9.226562 -2.941406 10.066406 -2.75 11.015625 -2.75 C 11.367188 -2.75 11.695312 -2.769531 12 -2.8125 C 12.3125 -2.851562 12.601562 -2.914062 12.875 -3 C 13.144531 -3.082031 13.394531 -3.1875 13.625 -3.3125 C 14.382812 -3.675781 15.015625 -4.175781 15.515625 -4.8125 C 15.691406 -5.03125 15.847656 -5.257812 15.984375 -5.5 C 16.117188 -5.738281 16.242188 -6 16.359375 -6.28125 C 16.472656 -6.5625 16.578125 -6.847656 16.671875 -7.140625 C 16.941406 -8.085938 17.078125 -9.097656 17.078125 -10.171875 C 17.078125 -11.140625 16.929688 -12.070312 16.640625 -12.96875 C 16.367188 -13.851562 15.960938 -14.644531 15.421875 -15.34375 C 14.898438 -16.019531 14.273438 -16.5625 13.546875 -16.96875 C 12.804688 -17.351562 11.960938 -17.546875 11.015625 -17.546875 C 10.785156 -17.546875 10.550781 -17.535156 10.3125 -17.515625 C 10.082031 -17.492188 9.863281 -17.457031 9.65625 -17.40625 C 9.445312 -17.363281 9.242188 -17.304688 9.046875 -17.234375 C 8.859375 -17.171875 8.675781 -17.09375 8.5 -17 C 8.113281 -16.820312 7.765625 -16.609375 7.453125 -16.359375 C 7.140625 -16.109375 6.859375 -15.816406 6.609375 -15.484375 C 6.085938 -14.828125 5.679688 -14.054688 5.390625 -13.171875 C 5.117188 -12.242188 4.984375 -11.242188 4.984375 -10.171875 Z M 4.984375 -10.171875"/></g><g id="d"><path d="M 4.984375 -10.171875 C 4.984375 -9.785156 5 -9.414062 5.03125 -9.0625 C 5.0625 -8.707031 5.109375 -8.363281 5.171875 -8.03125 C 5.242188 -7.707031 5.328125 -7.390625 5.421875 -7.078125 C 5.710938 -6.171875 6.117188 -5.394531 6.640625 -4.75 C 6.816406 -4.539062 6.992188 -4.34375 7.171875 -4.15625 C 7.359375 -3.976562 7.554688 -3.816406 7.765625 -3.671875 C 7.984375 -3.523438 8.207031 -3.394531 8.4375 -3.28125 C 9.132812 -2.945312 9.898438 -2.78125 10.734375 -2.78125 C 11.597656 -2.78125 12.34375 -2.878906 12.96875 -3.078125 C 13.625 -3.285156 14.25 -3.570312 14.84375 -3.9375 L 15.609375 -4.375 L 15.890625 -3.5625 L 16.734375 -1.28125 L 16.96875 -0.671875 L 16.40625 -0.375 C 15.632812 0.03125 14.765625 0.378906 13.796875 0.671875 C 12.816406 0.941406 11.6875 1.078125 10.40625 1.078125 C 8.976562 1.078125 7.671875 0.8125 6.484375 0.28125 C 5.296875 -0.238281 4.265625 -0.988281 3.390625 -1.96875 C 2.535156 -2.9375 1.878906 -4.109375 1.421875 -5.484375 C 0.953125 -6.859375 0.71875 -8.382812 0.71875 -10.0625 C 0.71875 -11.6875 0.953125 -13.1875 1.421875 -14.5625 C 1.878906 -15.945312 2.546875 -17.144531 3.421875 -18.15625 C 4.304688 -19.175781 5.367188 -19.96875 6.609375 -20.53125 C 7.234375 -20.800781 7.890625 -21.007812 8.578125 -21.15625 C 9.273438 -21.300781 10.003906 -21.375 10.765625 -21.375 C 11.804688 -21.375 12.742188 -21.273438 13.578125 -21.078125 C 14.398438 -20.890625 15.191406 -20.617188 15.953125 -20.265625 L 16.53125 -19.984375 L 16.328125 -19.34375 L 15.484375 -17.015625 L 15.203125 -16.265625 L 14.46875 -16.609375 C 13.90625 -16.898438 13.335938 -17.125 12.765625 -17.28125 C 12.566406 -17.34375 12.363281 -17.382812 12.15625 -17.40625 C 11.957031 -17.4375 11.738281 -17.460938 11.5 -17.484375 C 11.257812 -17.503906 11.003906 -17.515625 10.734375 -17.515625 C 10.328125 -17.515625 9.929688 -17.472656 9.546875 -17.390625 C 9.160156 -17.316406 8.789062 -17.203125 8.4375 -17.046875 C 8.09375 -16.890625 7.769531 -16.695312 7.46875 -16.46875 C 7.164062 -16.238281 6.890625 -15.96875 6.640625 -15.65625 C 6.390625 -15.351562 6.160156 -15.007812 5.953125 -14.625 C 5.753906 -14.25 5.578125 -13.832031 5.421875 -13.375 C 5.128906 -12.445312 4.984375 -11.378906 4.984375 -10.171875 Z M 4.984375 -10.171875"/></g><g id="e"><path d="M 2.515625 -20.96875 C 3.347656 -21.0625 4.238281 -21.128906 5.1875 -21.171875 C 6.132812 -21.222656 7.140625 -21.25 8.203125 -21.25 C 9.535156 -21.25 10.726562 -21.085938 11.78125 -20.765625 C 11.96875 -20.703125 12.144531 -20.640625 12.3125 -20.578125 C 12.476562 -20.523438 12.640625 -20.457031 12.796875 -20.375 C 12.960938 -20.300781 13.117188 -20.222656 13.265625 -20.140625 C 13.410156 -20.066406 13.554688 -19.988281 13.703125 -19.90625 C 13.847656 -19.820312 13.988281 -19.734375 14.125 -19.640625 C 14.257812 -19.554688 14.394531 -19.46875 14.53125 -19.375 C 15.28125 -18.75 15.859375 -18.003906 16.265625 -17.140625 C 16.648438 -16.265625 16.84375 -15.335938 16.84375 -14.359375 C 16.84375 -13.160156 16.609375 -12.09375 16.140625 -11.15625 C 15.679688 -10.21875 15.035156 -9.421875 14.203125 -8.765625 C 13.796875 -8.453125 13.347656 -8.171875 12.859375 -7.921875 C 12.367188 -7.679688 11.84375 -7.476562 11.28125 -7.3125 C 10.175781 -7 8.957031 -6.84375 7.625 -6.84375 C 7.445312 -6.84375 7.265625 -6.84375 7.078125 -6.84375 C 6.898438 -6.84375 6.726562 -6.847656 6.5625 -6.859375 C 6.40625 -6.867188 6.25 -6.875 6.09375 -6.875 L 6.09375 0.71875 L 1.890625 0.71875 L 1.890625 -20.875 Z M 7.96875 -10.578125 C 9.539062 -10.578125 10.734375 -10.910156 11.546875 -11.578125 C 12.296875 -12.191406 12.671875 -13.039062 12.671875 -14.125 C 12.671875 -15.144531 12.3125 -15.957031 11.59375 -16.5625 C 10.820312 -17.175781 9.675781 -17.484375 8.15625 -17.484375 C 7.976562 -17.484375 7.804688 -17.484375 7.640625 -17.484375 C 7.472656 -17.484375 7.3125 -17.476562 7.15625 -17.46875 C 7.007812 -17.457031 6.859375 -17.453125 6.703125 -17.453125 C 6.503906 -17.453125 6.300781 -17.441406 6.09375 -17.421875 L 6.09375 -10.671875 L 6.53125 -10.609375 C 6.664062 -10.609375 6.804688 -10.601562 6.953125 -10.59375 C 7.109375 -10.582031 7.273438 -10.578125 7.453125 -10.578125 C 7.628906 -10.578125 7.800781 -10.578125 7.96875 -10.578125 Z M 7.96875 -10.578125"/></g><g id="f"><path d="M 1.890625 0 L 1.890625 -21.03125 L 6.09375 -21.03125 L 6.09375 0.71875 L 1.890625 0.71875 Z M 1.890625 0"/></g><g id="g"><path d="M 0.296875 -21.03125 L 16.234375 -21.03125 L 16.234375 -17.140625 L 10 -17.140625 L 10 0.71875 L 5.796875 0.71875 L 5.796875 -17.140625 L -0.4375 -17.140625 L -0.4375 -21.03125 Z M 0.296875 -21.03125"/></g><g id="h"><path d="M 14.671875 0.71875 L 1.890625 0.71875 L 1.890625 -21.03125 L 6.09375 -21.03125 L 6.09375 -3.1875 L 15.40625 -3.1875 L 15.40625 0.71875 Z M 14.671875 0.71875"/></g><g id="i"><path d="M 2.609375 -21.03125 L 15.515625 -21.03125 L 15.515625 -17.203125 L 6.09375 -17.203125 L 6.09375 -12.46875 L 14.203125 -12.46875 L 14.203125 -8.703125 L 6.09375 -8.703125 L 6.09375 -3.109375 L 15.515625 -3.109375 L 15.515625 0.71875 L 1.890625 0.71875 L 1.890625 -21.03125 Z M 2.609375 -21.03125"/></g><g id="j"><path d="M 6.234375 -10.328125 L 0.03125 -18.421875 L -0.40625 -19 L 0.171875 -19.4375 L 2.46875 -21.140625 L 3.046875 -21.578125 L 3.484375 -21 L 8.796875 -13.578125 L 14.03125 -20.90625 L 14.46875 -21.484375 L 15.046875 -21.046875 L 17.203125 -19.4375 L 17.78125 -19 L 17.34375 -18.421875 L 11.34375 -10.46875 L 17.921875 -1.859375 L 18.359375 -1.28125 L 17.78125 -0.84375 L 15.546875 0.875 L 14.96875 1.3125 L 14.53125 0.71875 L 8.703125 -7.15625 L 3.078125 0.671875 L 2.640625 1.25 L 2.0625 0.8125 L -0.109375 -0.84375 L -0.6875 -1.28125 L -0.265625 -1.859375 Z M 6.234375 -10.328125"/></g><g id="k"><path d="M 14.640625 -8.53125 L 6.09375 -8.53125 L 6.09375 0.71875 L 1.890625 0.71875 L 1.890625 -21.03125 L 6.09375 -21.03125 L 6.09375 -12.359375 L 14.640625 -12.359375 L 14.640625 -21.03125 L 18.84375 -21.03125 L 18.84375 0.71875 L 14.640625 0.71875 Z M 14.640625 -8.53125"/></g><g id="l"><path d="M 5.9375 -13.890625 L 5.9375 0.71875 L 1.890625 0.71875 L 1.890625 -21.03125 L 6.703125 -21.03125 L 6.90625 -20.640625 L 14.5 -6.328125 L 14.5 -21.03125 L 18.5625 -21.03125 L 18.5625 0.71875 L 13.796875 0.71875 L 13.59375 0.34375 Z M 5.9375 -13.890625"/></g><g id="m"><path d="M 10.84375 -11.484375 L 18.390625 -11.484375 L 18.390625 0.71875 L 14.5 0.71875 L 14.5 -0.546875 C 14.050781 -0.253906 13.578125 0.015625 13.078125 0.265625 C 12.015625 0.804688 10.835938 1.078125 9.546875 1.078125 C 8.242188 1.078125 7.050781 0.820312 5.96875 0.3125 C 5.625 0.144531 5.285156 -0.046875 4.953125 -0.265625 C 4.628906 -0.492188 4.316406 -0.742188 4.015625 -1.015625 C 3.710938 -1.285156 3.4375 -1.578125 3.1875 -1.890625 C 2.414062 -2.835938 1.804688 -3.96875 1.359375 -5.28125 C 1.148438 -5.914062 0.988281 -6.597656 0.875 -7.328125 C 0.769531 -8.066406 0.71875 -8.832031 0.71875 -9.625 C 0.71875 -11.332031 0.941406 -12.890625 1.390625 -14.296875 C 1.835938 -15.722656 2.484375 -16.960938 3.328125 -18.015625 C 3.597656 -18.378906 3.898438 -18.707031 4.234375 -19 C 4.578125 -19.300781 4.929688 -19.578125 5.296875 -19.828125 C 5.671875 -20.085938 6.070312 -20.3125 6.5 -20.5 C 7.738281 -21.082031 9.148438 -21.375 10.734375 -21.375 C 12.085938 -21.375 13.285156 -21.207031 14.328125 -20.875 C 14.441406 -20.84375 14.554688 -20.804688 14.671875 -20.765625 C 14.785156 -20.722656 14.894531 -20.679688 15 -20.640625 C 15.113281 -20.609375 15.222656 -20.566406 15.328125 -20.515625 C 15.429688 -20.460938 15.539062 -20.414062 15.65625 -20.375 C 15.769531 -20.34375 15.878906 -20.300781 15.984375 -20.25 C 16.097656 -20.207031 16.203125 -20.160156 16.296875 -20.109375 C 16.390625 -20.054688 16.488281 -20 16.59375 -19.9375 C 16.707031 -19.882812 16.816406 -19.832031 16.921875 -19.78125 C 17.023438 -19.738281 17.125 -19.691406 17.21875 -19.640625 L 17.8125 -19.3125 L 17.546875 -18.703125 L 16.53125 -16.40625 L 16.21875 -15.6875 L 15.515625 -16.0625 C 15.265625 -16.195312 15.007812 -16.328125 14.75 -16.453125 C 14.488281 -16.578125 14.222656 -16.695312 13.953125 -16.8125 C 13.679688 -16.9375 13.421875 -17.035156 13.171875 -17.109375 C 12.785156 -17.242188 12.378906 -17.34375 11.953125 -17.40625 C 11.523438 -17.476562 11.066406 -17.515625 10.578125 -17.515625 C 10.171875 -17.515625 9.785156 -17.472656 9.421875 -17.390625 C 9.054688 -17.316406 8.707031 -17.191406 8.375 -17.015625 C 7.695312 -16.710938 7.117188 -16.25 6.640625 -15.625 C 6.140625 -14.96875 5.734375 -14.15625 5.421875 -13.1875 C 5.128906 -12.207031 4.984375 -11.078125 4.984375 -9.796875 C 4.984375 -8.660156 5.117188 -7.644531 5.390625 -6.75 C 5.660156 -5.882812 6.03125 -5.148438 6.5 -4.546875 C 6.9375 -3.972656 7.46875 -3.539062 8.09375 -3.25 C 8.40625 -3.09375 8.734375 -2.972656 9.078125 -2.890625 C 9.421875 -2.816406 9.785156 -2.78125 10.171875 -2.78125 C 10.410156 -2.78125 10.644531 -2.796875 10.875 -2.828125 C 11.101562 -2.859375 11.328125 -2.898438 11.546875 -2.953125 C 11.753906 -3.015625 11.957031 -3.078125 12.15625 -3.140625 C 12.363281 -3.210938 12.554688 -3.296875 12.734375 -3.390625 C 12.847656 -3.453125 12.960938 -3.515625 13.078125 -3.578125 C 13.191406 -3.648438 13.304688 -3.71875 13.421875 -3.78125 C 13.535156 -3.851562 13.644531 -3.925781 13.75 -4 C 13.800781 -4.039062 13.863281 -4.085938 13.9375 -4.140625 C 14.019531 -4.203125 14.09375 -4.257812 14.15625 -4.3125 C 14.226562 -4.375 14.285156 -4.425781 14.328125 -4.46875 L 14.328125 -7.859375 L 10.125 -7.859375 L 10.125 -11.484375 Z M 10.84375 -11.484375"/></g><g id="n"><path d="M 1.6875 -1.59375 C 1.6875 -1.84375 1.707031 -2.078125 1.75 -2.296875 C 1.800781 -2.523438 1.878906 -2.742188 1.984375 -2.953125 C 2.085938 -3.171875 2.226562 -3.359375 2.40625 -3.515625 C 2.875 -4.015625 3.519531 -4.265625 4.34375 -4.265625 C 5.039062 -4.265625 5.660156 -4.003906 6.203125 -3.484375 C 6.742188 -2.960938 7.015625 -2.332031 7.015625 -1.59375 C 7.015625 -0.800781 6.753906 -0.164062 6.234375 0.3125 C 5.734375 0.820312 5.101562 1.078125 4.34375 1.078125 C 3.632812 1.078125 3.015625 0.8125 2.484375 0.28125 C 1.953125 -0.25 1.6875 -0.875 1.6875 -1.59375 Z M 1.6875 -1.59375"/></g><g id="o"><path d="M 12.75 -23.796875 C 14.882812 -23.796875 16.710938 -23.269531 18.234375 -22.21875 C 19.765625 -21.164062 20.929688 -19.738281 21.734375 -17.9375 C 22.546875 -16.132812 22.953125 -14.125 22.953125 -11.90625 C 22.953125 -9.675781 22.546875 -7.660156 21.734375 -5.859375 C 20.929688 -4.054688 19.765625 -2.628906 18.234375 -1.578125 C 16.710938 -0.523438 14.882812 0 12.75 0 L 4.625 0 C 4.03125 0 3.535156 -0.195312 3.140625 -0.59375 C 2.742188 -0.988281 2.546875 -1.484375 2.546875 -2.078125 L 2.546875 -21.71875 C 2.546875 -22.3125 2.742188 -22.804688 3.140625 -23.203125 C 3.535156 -23.597656 4.03125 -23.796875 4.625 -23.796875 Z M 12.40625 -3.90625 C 14.445312 -3.90625 15.976562 -4.660156 17 -6.171875 C 18.019531 -7.679688 18.53125 -9.59375 18.53125 -11.90625 C 18.53125 -14.21875 18.015625 -16.125 16.984375 -17.625 C 15.953125 -19.132812 14.425781 -19.890625 12.40625 -19.890625 L 6.796875 -19.890625 L 6.796875 -3.90625 Z M 12.40625 -3.90625"/></g><g id="p"><path d="M 19.203125 -22.640625 C 19.910156 -22.273438 20.265625 -21.695312 20.265625 -20.90625 C 20.265625 -20.4375 20.09375 -19.972656 19.75 -19.515625 C 19.382812 -19.035156 18.921875 -18.796875 18.359375 -18.796875 C 17.972656 -18.796875 17.585938 -18.898438 17.203125 -19.109375 C 16.085938 -19.628906 14.882812 -19.890625 13.59375 -19.890625 C 12.007812 -19.890625 10.628906 -19.554688 9.453125 -18.890625 C 8.273438 -18.222656 7.367188 -17.28125 6.734375 -16.0625 C 6.097656 -14.851562 5.78125 -13.46875 5.78125 -11.90625 C 5.78125 -9.226562 6.5 -7.195312 7.9375 -5.8125 C 9.375 -4.425781 11.257812 -3.734375 13.59375 -3.734375 C 14.976562 -3.734375 16.179688 -3.992188 17.203125 -4.515625 C 17.609375 -4.703125 17.972656 -4.796875 18.296875 -4.796875 C 18.878906 -4.796875 19.375 -4.546875 19.78125 -4.046875 C 20.125 -3.617188 20.296875 -3.15625 20.296875 -2.65625 C 20.296875 -2.289062 20.203125 -1.957031 20.015625 -1.65625 C 19.835938 -1.363281 19.582031 -1.140625 19.25 -0.984375 C 17.476562 -0.0976562 15.59375 0.34375 13.59375 0.34375 C 11.375 0.34375 9.332031 -0.125 7.46875 -1.0625 C 5.613281 -2.007812 4.128906 -3.398438 3.015625 -5.234375 C 1.910156 -7.066406 1.359375 -9.289062 1.359375 -11.90625 C 1.359375 -14.21875 1.882812 -16.289062 2.9375 -18.125 C 3.988281 -19.957031 5.441406 -21.390625 7.296875 -22.421875 C 9.160156 -23.453125 11.257812 -23.96875 13.59375 -23.96875 C 15.613281 -23.96875 17.484375 -23.523438 19.203125 -22.640625 Z M 19.203125 -22.640625"/></g><g id="q"><path d="M 20.296875 -3.125 C 20.566406 -2.757812 20.703125 -2.34375 20.703125 -1.875 C 20.703125 -1.28125 20.484375 -0.789062 20.046875 -0.40625 C 19.617188 -0.0195312 19.160156 0.171875 18.671875 0.171875 C 18.015625 0.171875 17.457031 -0.125 17 -0.71875 L 10.953125 -8.765625 L 5.0625 -0.78125 C 4.613281 -0.144531 4.046875 0.171875 3.359375 0.171875 C 2.867188 0.171875 2.441406 -0.0078125 2.078125 -0.375 C 1.710938 -0.738281 1.53125 -1.15625 1.53125 -1.625 C 1.53125 -2.125 1.703125 -2.59375 2.046875 -3.03125 L 8.609375 -11.90625 L 2.046875 -20.609375 C 1.742188 -20.960938 1.59375 -21.367188 1.59375 -21.828125 C 1.59375 -22.390625 1.804688 -22.875 2.234375 -23.28125 C 2.671875 -23.695312 3.148438 -23.90625 3.671875 -23.90625 C 4.328125 -23.90625 4.882812 -23.609375 5.34375 -23.015625 L 11.328125 -15.0625 L 17.171875 -22.84375 C 17.398438 -23.164062 17.660156 -23.410156 17.953125 -23.578125 C 18.242188 -23.742188 18.539062 -23.828125 18.84375 -23.828125 C 19.332031 -23.828125 19.769531 -23.628906 20.15625 -23.234375 C 20.539062 -22.835938 20.734375 -22.40625 20.734375 -21.9375 C 20.734375 -21.5 20.585938 -21.085938 20.296875 -20.703125 L 13.671875 -11.96875 Z M 20.296875 -3.125"/></g></defs><path d="M 139.003906 236.339844 L 59.40625 236.339844 C 56.128906 236.339844 53.457031 233.667969 53.457031 230.386719 L 53.457031 150.789062 C 53.457031 147.511719 56.128906 144.839844 59.40625 144.839844 L 139.003906 144.839844 C 142.285156 144.839844 144.957031 147.511719 144.957031 150.789062 L 144.957031 230.386719 C 144.957031 233.667969 142.285156 236.339844 139.003906 236.339844 Z M 139.003906 236.339844"/><g fill="#121212"><use x="152.898" y="171.279" xmlns:xlink="http://www.w3.org/1999/xlink" xlink:href="#a" xlink:type="simple" xlink:actuate="onLoad" xlink:show="embed"/></g><g fill="#121212"><use x="172.671" y="171.279" xmlns:xlink="http://www.w3.org/1999/xlink" xlink:href="#b" xlink:type="simple" xlink:actuate="onLoad" xlink:show="embed"/></g><g fill="#121212"><use x="192.037" y="171.279" xmlns:xlink="http://www.w3.org/1999/xlink" xlink:href="#c" xlink:type="simple" xlink:actuate="onLoad" xlink:show="embed"/></g><g fill="#121212"><use x="152.898" y="199.029" xmlns:xlink="http://www.w3.org/1999/xlink" xlink:href="#d" xlink:type="simple" xlink:actuate="onLoad" xlink:show="embed"/></g><g fill="#121212"><use x="170.119" y="199.029" xmlns:xlink="http://www.w3.org/1999/xlink" xlink:href="#b" xlink:type="simple" xlink:actuate="onLoad" xlink:show="embed"/></g><g fill="#121212"><use x="189.486" y="199.029" xmlns:xlink="http://www.w3.org/1999/xlink" xlink:href="#e" xlink:type="simple" xlink:actuate="onLoad" xlink:show="embed"/></g><g fill="#121212"><use x="206.33" y="199.029" xmlns:xlink="http://www.w3.org/1999/xlink" xlink:href="#f" xlink:type="simple" xlink:actuate="onLoad" xlink:show="embed"/></g><g fill="#121212"><use x="214.303" y="199.029" xmlns:xlink="http://www.w3.org/1999/xlink" xlink:href="#g" xlink:type="simple" xlink:actuate="onLoad" xlink:show="embed"/></g><g fill="#121212"><use x="230.104" y="199.029" xmlns:xlink="http://www.w3.org/1999/xlink" xlink:href="#b" xlink:type="simple" xlink:actuate="onLoad" xlink:show="embed"/></g><g fill="#121212"><use x="249.471" y="199.029" xmlns:xlink="http://www.w3.org/1999/xlink" xlink:href="#h" xlink:type="simple" xlink:actuate="onLoad" xlink:show="embed"/></g><g fill="#121212"><use x="152.898" y="226.779" xmlns:xlink="http://www.w3.org/1999/xlink" xlink:href="#i" xlink:type="simple" xlink:actuate="onLoad" xlink:show="embed"/></g><g fill="#121212"><use x="168.989" y="226.779" xmlns:xlink="http://www.w3.org/1999/xlink" xlink:href="#j" xlink:type="simple" xlink:actuate="onLoad" xlink:show="embed"/></g><g fill="#121212"><use x="186.587" y="226.779" xmlns:xlink="http://www.w3.org/1999/xlink" xlink:href="#d" xlink:type="simple" xlink:actuate="onLoad" xlink:show="embed"/></g><g fill="#121212"><use x="203.808" y="226.779" xmlns:xlink="http://www.w3.org/1999/xlink" xlink:href="#k" xlink:type="simple" xlink:actuate="onLoad" xlink:show="embed"/></g><g fill="#121212"><use x="224.538" y="226.779" xmlns:xlink="http://www.w3.org/1999/xlink" xlink:href="#b" xlink:type="simple" xlink:actuate="onLoad" xlink:show="embed"/></g><g fill="#121212"><use x="243.904" y="226.779" xmlns:xlink="http://www.w3.org/1999/xlink" xlink:href="#l" xlink:type="simple" xlink:actuate="onLoad" xlink:show="embed"/></g><g fill="#121212"><use x="264.344" y="226.779" xmlns:xlink="http://www.w3.org/1999/xlink" xlink:href="#m" xlink:type="simple" xlink:actuate="onLoad" xlink:show="embed"/></g><g fill="#121212"><use x="283.885" y="226.779" xmlns:xlink="http://www.w3.org/1999/xlink" xlink:href="#i" xlink:type="simple" xlink:actuate="onLoad" xlink:show="embed"/></g><g fill="#121212"><use x="299.975" y="226.779" xmlns:xlink="http://www.w3.org/1999/xlink" xlink:href="#n" xlink:type="simple" xlink:actuate="onLoad" xlink:show="embed"/></g><g fill="#FFF"><use x="65.323" y="202.49" xmlns:xlink="http://www.w3.org/1999/xlink" xlink:href="#o" xlink:type="simple" xlink:actuate="onLoad" xlink:show="embed"/></g><g fill="#FFF"><use x="89.631" y="202.49" xmlns:xlink="http://www.w3.org/1999/xlink" xlink:href="#p" xlink:type="simple" xlink:actuate="onLoad" xlink:show="embed"/></g><g fill="#FFF"><use x="110.946" y="202.49" xmlns:xlink="http://www.w3.org/1999/xlink" xlink:href="#q" xlink:type="simple" xlink:actuate="onLoad" xlink:show="embed"/></g></svg>