<svg xmlns="http://www.w3.org/2000/svg" xmlns:xlink="http://www.w3.org/1999/xlink" width="375" viewBox="0 0 375 375" height="375" version="1.0"><defs><g id="a"><path d="M 45 -84 C 52.519531 -84 58.976562 -82.140625 64.375 -78.421875 C 69.78125 -74.703125 73.898438 -69.660156 76.734375 -63.296875 C 79.578125 -56.941406 81 -49.84375 81 -42 C 81 -34.15625 79.578125 -27.050781 76.734375 -20.6875 C 73.898438 -14.332031 69.78125 -9.296875 64.375 -5.578125 C 58.976562 -1.859375 52.519531 0 45 0 L 16.3125 0 C 14.238281 0 12.5 -0.695312 11.09375 -2.09375 C 9.695312 -3.5 9 -5.238281 9 -7.3125 L 9 -76.6875 C 9 -78.757812 9.695312 -80.492188 11.09375 -81.890625 C 12.5 -83.296875 14.238281 -84 16.3125 -84 Z M 43.796875 -13.796875 C 50.992188 -13.796875 56.394531 -16.457031 60 -21.78125 C 63.601562 -27.101562 65.40625 -33.84375 65.40625 -42 C 65.40625 -50.15625 63.582031 -56.894531 59.9375 -62.21875 C 56.300781 -67.539062 50.921875 -70.203125 43.796875 -70.203125 L 24 -70.203125 L 24 -13.796875 Z M 43.796875 -13.796875"/></g><g id="b"><path d="M 67.796875 -79.921875 C 70.273438 -78.640625 71.515625 -76.597656 71.515625 -73.796875 C 71.515625 -72.117188 70.914062 -70.476562 69.71875 -68.875 C 68.4375 -67.195312 66.796875 -66.359375 64.796875 -66.359375 C 63.441406 -66.359375 62.082031 -66.71875 60.71875 -67.4375 C 56.800781 -69.28125 52.5625 -70.203125 48 -70.203125 C 42.394531 -70.203125 37.515625 -69.019531 33.359375 -66.65625 C 29.203125 -64.300781 26.003906 -60.984375 23.765625 -56.703125 C 21.523438 -52.421875 20.40625 -47.519531 20.40625 -42 C 20.40625 -32.5625 22.941406 -25.398438 28.015625 -20.515625 C 33.097656 -15.640625 39.757812 -13.203125 48 -13.203125 C 52.875 -13.203125 57.113281 -14.117188 60.71875 -15.953125 C 62.15625 -16.597656 63.4375 -16.921875 64.5625 -16.921875 C 66.644531 -16.921875 68.40625 -16.039062 69.84375 -14.28125 C 71.039062 -12.757812 71.640625 -11.117188 71.640625 -9.359375 C 71.640625 -8.078125 71.316406 -6.914062 70.671875 -5.875 C 70.035156 -4.832031 69.117188 -4.035156 67.921875 -3.484375 C 61.679688 -0.359375 55.039062 1.203125 48 1.203125 C 40.15625 1.203125 32.953125 -0.457031 26.390625 -3.78125 C 19.835938 -7.101562 14.597656 -12.003906 10.671875 -18.484375 C 6.753906 -24.960938 4.796875 -32.800781 4.796875 -42 C 4.796875 -50.15625 6.65625 -57.472656 10.375 -63.953125 C 14.09375 -70.441406 19.234375 -75.503906 25.796875 -79.140625 C 32.359375 -82.773438 39.757812 -84.59375 48 -84.59375 C 55.125 -84.59375 61.722656 -83.035156 67.796875 -79.921875 Z M 67.796875 -79.921875"/></g><g id="c"><path d="M 71.640625 -11.046875 C 72.597656 -9.765625 73.078125 -8.28125 73.078125 -6.59375 C 73.078125 -4.519531 72.316406 -2.800781 70.796875 -1.4375 C 69.273438 -0.0820312 67.632812 0.59375 65.875 0.59375 C 63.5625 0.59375 61.601562 -0.441406 60 -2.515625 L 38.640625 -30.953125 L 17.875 -2.765625 C 16.28125 -0.523438 14.28125 0.59375 11.875 0.59375 C 10.113281 0.59375 8.59375 -0.0390625 7.3125 -1.3125 C 6.039062 -2.59375 5.40625 -4.078125 5.40625 -5.765625 C 5.40625 -7.523438 6.003906 -9.164062 7.203125 -10.6875 L 30.359375 -42 L 7.203125 -72.71875 C 6.160156 -74 5.640625 -75.441406 5.640625 -77.046875 C 5.640625 -79.046875 6.398438 -80.765625 7.921875 -82.203125 C 9.441406 -83.640625 11.117188 -84.359375 12.953125 -84.359375 C 15.273438 -84.359375 17.238281 -83.316406 18.84375 -81.234375 L 39.953125 -53.15625 L 60.59375 -80.640625 C 61.394531 -81.753906 62.316406 -82.613281 63.359375 -83.21875 C 64.398438 -83.820312 65.441406 -84.125 66.484375 -84.125 C 68.242188 -84.125 69.800781 -83.421875 71.15625 -82.015625 C 72.519531 -80.617188 73.203125 -79.082031 73.203125 -77.40625 C 73.203125 -75.882812 72.679688 -74.441406 71.640625 -73.078125 L 48.234375 -42.234375 Z M 71.640625 -11.046875"/></g><g id="d"><path d="M 2.265625 -18.796875 C 2.472656 -18.816406 2.679688 -18.832031 2.890625 -18.84375 C 3.097656 -18.863281 3.300781 -18.878906 3.5 -18.890625 C 3.695312 -18.910156 3.894531 -18.929688 4.09375 -18.953125 C 4.289062 -18.972656 4.492188 -18.984375 4.703125 -18.984375 C 5.484375 -19.035156 6.382812 -19.0625 7.40625 -19.0625 C 9.050781 -19.0625 10.484375 -18.800781 11.703125 -18.28125 C 12.910156 -17.757812 13.921875 -17.03125 14.734375 -16.09375 C 15.535156 -15.1875 16.128906 -14.128906 16.515625 -12.921875 C 16.890625 -11.722656 17.078125 -10.457031 17.078125 -9.125 C 17.078125 -7.789062 16.890625 -6.523438 16.515625 -5.328125 C 16.421875 -5.085938 16.328125 -4.847656 16.234375 -4.609375 C 16.140625 -4.378906 16.035156 -4.15625 15.921875 -3.9375 C 15.804688 -3.71875 15.679688 -3.503906 15.546875 -3.296875 C 15.421875 -3.085938 15.289062 -2.882812 15.15625 -2.6875 C 15.019531 -2.488281 14.863281 -2.296875 14.6875 -2.109375 C 13.875 -1.191406 12.832031 -0.460938 11.5625 0.078125 C 10.320312 0.597656 8.84375 0.859375 7.125 0.859375 C 6.945312 0.859375 6.78125 0.859375 6.625 0.859375 C 6.46875 0.859375 6.3125 0.859375 6.15625 0.859375 C 6 0.859375 5.851562 0.851562 5.71875 0.84375 C 5.582031 0.832031 5.441406 0.828125 5.296875 0.828125 C 5.160156 0.828125 5.023438 0.820312 4.890625 0.8125 C 4.753906 0.8125 4.625 0.800781 4.5 0.78125 C 3.75 0.75 3.003906 0.6875 2.265625 0.59375 L 1.6875 0.515625 L 1.6875 -18.71875 Z M 7.328125 -15.625 C 7.085938 -15.625 6.851562 -15.617188 6.625 -15.609375 C 6.40625 -15.597656 6.195312 -15.59375 6 -15.59375 C 5.8125 -15.582031 5.628906 -15.566406 5.453125 -15.546875 L 5.453125 -2.65625 C 5.503906 -2.65625 5.550781 -2.65625 5.59375 -2.65625 C 5.644531 -2.65625 5.691406 -2.648438 5.734375 -2.640625 C 5.773438 -2.628906 5.8125 -2.625 5.84375 -2.625 C 5.882812 -2.625 5.929688 -2.625 5.984375 -2.625 C 6.378906 -2.601562 6.785156 -2.59375 7.203125 -2.59375 C 7.429688 -2.59375 7.644531 -2.601562 7.84375 -2.625 C 8.039062 -2.644531 8.234375 -2.664062 8.421875 -2.6875 C 8.609375 -2.71875 8.789062 -2.75 8.96875 -2.78125 C 9.15625 -2.8125 9.332031 -2.851562 9.5 -2.90625 C 9.664062 -2.957031 9.816406 -3.019531 9.953125 -3.09375 C 10.722656 -3.40625 11.347656 -3.835938 11.828125 -4.390625 C 12.316406 -4.941406 12.671875 -5.617188 12.890625 -6.421875 C 13.140625 -7.234375 13.265625 -8.132812 13.265625 -9.125 C 13.265625 -9.988281 13.140625 -10.820312 12.890625 -11.625 C 12.648438 -12.40625 12.296875 -13.097656 11.828125 -13.703125 C 11.585938 -13.992188 11.316406 -14.253906 11.015625 -14.484375 C 10.710938 -14.722656 10.367188 -14.929688 9.984375 -15.109375 C 9.234375 -15.453125 8.347656 -15.625 7.328125 -15.625 Z M 7.328125 -15.625"/></g><g id="e"><path d="M -0.3125 -0.890625 L 6.8125 -18.4375 L 6.96875 -18.84375 L 10.5625 -18.84375 L 10.71875 -18.4375 L 17.734375 -0.890625 L 17.96875 -0.28125 L 17.375 -0.046875 L 15.109375 0.859375 L 14.515625 1.125 L 14.28125 0.5 L 12.40625 -4.296875 L 4.875 -4.296875 L 3 0.4375 L 2.765625 1.0625 L 2.15625 0.8125 L 0.0625 -0.046875 L -0.5625 -0.28125 Z M 6.171875 -7.671875 L 11.078125 -7.671875 L 8.640625 -13.96875 Z M 6.171875 -7.671875"/></g><g id="f"><path d="M 0.65625 -9.125 C 0.65625 -10.53125 0.863281 -11.835938 1.28125 -13.046875 C 1.6875 -14.273438 2.289062 -15.34375 3.09375 -16.25 C 3.894531 -17.164062 4.863281 -17.875 6 -18.375 C 6.570312 -18.632812 7.179688 -18.828125 7.828125 -18.953125 C 8.484375 -19.085938 9.164062 -19.15625 9.875 -19.15625 C 10.59375 -19.15625 11.273438 -19.085938 11.921875 -18.953125 C 12.566406 -18.828125 13.175781 -18.628906 13.75 -18.359375 C 14.320312 -18.097656 14.847656 -17.785156 15.328125 -17.421875 C 15.816406 -17.054688 16.265625 -16.640625 16.671875 -16.171875 C 17.460938 -15.265625 18.078125 -14.207031 18.515625 -13 C 18.929688 -11.789062 19.140625 -10.5 19.140625 -9.125 C 19.140625 -7.757812 18.929688 -6.46875 18.515625 -5.25 C 18.367188 -4.851562 18.207031 -4.460938 18.03125 -4.078125 C 17.851562 -3.703125 17.648438 -3.34375 17.421875 -3 C 17.191406 -2.664062 16.945312 -2.34375 16.6875 -2.03125 C 16.289062 -1.5625 15.84375 -1.144531 15.34375 -0.78125 C 14.851562 -0.414062 14.332031 -0.101562 13.78125 0.15625 C 12.632812 0.695312 11.332031 0.96875 9.875 0.96875 C 8.425781 0.96875 7.128906 0.695312 5.984375 0.15625 C 5.703125 0.0195312 5.429688 -0.125 5.171875 -0.28125 C 4.910156 -0.4375 4.660156 -0.601562 4.421875 -0.78125 C 4.179688 -0.96875 3.945312 -1.164062 3.71875 -1.375 C 3.488281 -1.582031 3.28125 -1.800781 3.09375 -2.03125 C 2.289062 -2.945312 1.6875 -4.019531 1.28125 -5.25 C 0.863281 -6.46875 0.65625 -7.757812 0.65625 -9.125 Z M 4.46875 -9.125 C 4.46875 -8.6875 4.5 -8.253906 4.5625 -7.828125 C 4.625 -7.410156 4.71875 -6.992188 4.84375 -6.578125 C 4.976562 -6.179688 5.128906 -5.800781 5.296875 -5.4375 C 5.472656 -5.082031 5.679688 -4.753906 5.921875 -4.453125 C 5.992188 -4.347656 6.070312 -4.25 6.15625 -4.15625 C 6.25 -4.070312 6.335938 -3.984375 6.421875 -3.890625 C 6.503906 -3.804688 6.59375 -3.722656 6.6875 -3.640625 C 6.789062 -3.554688 6.894531 -3.476562 7 -3.40625 C 7.101562 -3.332031 7.207031 -3.257812 7.3125 -3.1875 C 7.414062 -3.125 7.519531 -3.054688 7.625 -2.984375 C 8.28125 -2.640625 9.03125 -2.46875 9.875 -2.46875 C 10.1875 -2.46875 10.484375 -2.484375 10.765625 -2.515625 C 11.046875 -2.554688 11.304688 -2.613281 11.546875 -2.6875 C 11.785156 -2.769531 12.007812 -2.863281 12.21875 -2.96875 C 12.894531 -3.289062 13.457031 -3.738281 13.90625 -4.3125 C 14.0625 -4.507812 14.203125 -4.710938 14.328125 -4.921875 C 14.453125 -5.140625 14.5625 -5.375 14.65625 -5.625 C 14.757812 -5.875 14.859375 -6.128906 14.953125 -6.390625 C 15.191406 -7.242188 15.3125 -8.15625 15.3125 -9.125 C 15.3125 -9.988281 15.179688 -10.820312 14.921875 -11.625 C 14.679688 -12.414062 14.316406 -13.125 13.828125 -13.75 C 13.359375 -14.351562 12.796875 -14.835938 12.140625 -15.203125 C 11.484375 -15.554688 10.726562 -15.734375 9.875 -15.734375 C 9.664062 -15.734375 9.457031 -15.722656 9.25 -15.703125 C 9.039062 -15.679688 8.84375 -15.648438 8.65625 -15.609375 C 8.46875 -15.566406 8.285156 -15.515625 8.109375 -15.453125 C 7.941406 -15.390625 7.78125 -15.316406 7.625 -15.234375 C 7.269531 -15.078125 6.953125 -14.882812 6.671875 -14.65625 C 6.398438 -14.4375 6.148438 -14.179688 5.921875 -13.890625 C 5.453125 -13.296875 5.09375 -12.597656 4.84375 -11.796875 C 4.59375 -10.972656 4.46875 -10.082031 4.46875 -9.125 Z M 4.46875 -9.125"/></g><g id="h"><path d="M 4.46875 -9.125 C 4.46875 -8.78125 4.476562 -8.445312 4.5 -8.125 C 4.53125 -7.800781 4.578125 -7.492188 4.640625 -7.203125 C 4.703125 -6.910156 4.773438 -6.625 4.859375 -6.34375 C 5.117188 -5.53125 5.484375 -4.835938 5.953125 -4.265625 C 6.109375 -4.078125 6.269531 -3.898438 6.4375 -3.734375 C 6.601562 -3.566406 6.78125 -3.414062 6.96875 -3.28125 C 7.15625 -3.15625 7.351562 -3.039062 7.5625 -2.9375 C 8.1875 -2.644531 8.875 -2.5 9.625 -2.5 C 10.40625 -2.5 11.070312 -2.582031 11.625 -2.75 C 12.207031 -2.945312 12.769531 -3.207031 13.3125 -3.53125 L 13.984375 -3.921875 L 14.25 -3.203125 L 15 -1.140625 L 15.203125 -0.59375 L 14.71875 -0.34375 C 14.019531 0.0195312 13.238281 0.332031 12.375 0.59375 C 11.488281 0.84375 10.472656 0.96875 9.328125 0.96875 C 8.046875 0.96875 6.875 0.734375 5.8125 0.265625 C 4.75 -0.203125 3.828125 -0.878906 3.046875 -1.765625 C 2.273438 -2.628906 1.6875 -3.675781 1.28125 -4.90625 C 0.863281 -6.144531 0.65625 -7.515625 0.65625 -9.015625 C 0.65625 -10.472656 0.863281 -11.816406 1.28125 -13.046875 C 1.6875 -14.296875 2.28125 -15.375 3.0625 -16.28125 C 3.863281 -17.195312 4.816406 -17.90625 5.921875 -18.40625 C 6.484375 -18.644531 7.070312 -18.828125 7.6875 -18.953125 C 8.3125 -19.085938 8.960938 -19.15625 9.640625 -19.15625 C 10.578125 -19.15625 11.421875 -19.070312 12.171875 -18.90625 C 12.910156 -18.726562 13.617188 -18.484375 14.296875 -18.171875 L 14.8125 -17.90625 L 14.640625 -17.34375 L 13.890625 -15.265625 L 13.625 -14.59375 L 12.96875 -14.890625 C 12.46875 -15.148438 11.957031 -15.351562 11.4375 -15.5 C 11.269531 -15.550781 11.09375 -15.585938 10.90625 -15.609375 C 10.726562 -15.640625 10.53125 -15.660156 10.3125 -15.671875 C 10.09375 -15.691406 9.863281 -15.703125 9.625 -15.703125 C 9.257812 -15.703125 8.898438 -15.664062 8.546875 -15.59375 C 8.203125 -15.53125 7.875 -15.425781 7.5625 -15.28125 C 7.25 -15.144531 6.957031 -14.972656 6.6875 -14.765625 C 6.425781 -14.554688 6.179688 -14.3125 5.953125 -14.03125 C 5.722656 -13.757812 5.515625 -13.453125 5.328125 -13.109375 C 5.148438 -12.773438 4.992188 -12.398438 4.859375 -11.984375 C 4.597656 -11.148438 4.46875 -10.195312 4.46875 -9.125 Z M 4.46875 -9.125"/></g><g id="i"><path d="M 2.265625 -18.796875 C 3.003906 -18.878906 3.796875 -18.941406 4.640625 -18.984375 C 5.492188 -19.035156 6.398438 -19.0625 7.359375 -19.0625 C 8.554688 -19.0625 9.625 -18.910156 10.5625 -18.609375 C 10.726562 -18.554688 10.882812 -18.503906 11.03125 -18.453125 C 11.1875 -18.398438 11.335938 -18.335938 11.484375 -18.265625 C 11.628906 -18.203125 11.765625 -18.132812 11.890625 -18.0625 C 12.023438 -18 12.15625 -17.925781 12.28125 -17.84375 C 12.414062 -17.769531 12.539062 -17.691406 12.65625 -17.609375 C 12.78125 -17.535156 12.90625 -17.457031 13.03125 -17.375 C 13.707031 -16.8125 14.226562 -16.140625 14.59375 -15.359375 C 14.9375 -14.585938 15.109375 -13.757812 15.109375 -12.875 C 15.109375 -11.800781 14.898438 -10.84375 14.484375 -10 C 14.066406 -9.15625 13.484375 -8.441406 12.734375 -7.859375 C 12.367188 -7.578125 11.96875 -7.328125 11.53125 -7.109375 C 11.09375 -6.890625 10.617188 -6.703125 10.109375 -6.546875 C 9.117188 -6.273438 8.03125 -6.140625 6.84375 -6.140625 C 6.6875 -6.140625 6.523438 -6.140625 6.359375 -6.140625 C 6.191406 -6.140625 6.035156 -6.140625 5.890625 -6.140625 C 5.742188 -6.148438 5.597656 -6.15625 5.453125 -6.15625 L 5.453125 0.65625 L 1.6875 0.65625 L 1.6875 -18.71875 Z M 7.15625 -9.484375 C 8.550781 -9.484375 9.613281 -9.78125 10.34375 -10.375 C 11.019531 -10.925781 11.359375 -11.6875 11.359375 -12.65625 C 11.359375 -13.582031 11.039062 -14.3125 10.40625 -14.84375 C 9.707031 -15.394531 8.675781 -15.671875 7.3125 -15.671875 C 7.15625 -15.671875 7 -15.671875 6.84375 -15.671875 C 6.695312 -15.671875 6.554688 -15.664062 6.421875 -15.65625 C 6.285156 -15.65625 6.144531 -15.65625 6 -15.65625 C 5.832031 -15.65625 5.648438 -15.644531 5.453125 -15.625 L 5.453125 -9.5625 L 5.84375 -9.515625 C 5.96875 -9.515625 6.097656 -9.507812 6.234375 -9.5 C 6.378906 -9.488281 6.53125 -9.484375 6.6875 -9.484375 C 6.84375 -9.484375 7 -9.484375 7.15625 -9.484375 Z M 7.15625 -9.484375"/></g><g id="j"><path d="M 1.6875 0 L 1.6875 -18.84375 L 5.453125 -18.84375 L 5.453125 0.65625 L 1.6875 0.65625 Z M 1.6875 0"/></g><g id="k"><path d="M 0.265625 -18.84375 L 14.5625 -18.84375 L 14.5625 -15.359375 L 8.96875 -15.359375 L 8.96875 0.65625 L 5.203125 0.65625 L 5.203125 -15.359375 L -0.390625 -15.359375 L -0.390625 -18.84375 Z M 0.265625 -18.84375"/></g><g id="l"><path d="M 13.15625 0.65625 L 1.6875 0.65625 L 1.6875 -18.84375 L 5.453125 -18.84375 L 5.453125 -2.859375 L 13.8125 -2.859375 L 13.8125 0.65625 Z M 13.15625 0.65625"/></g><g id="m"><path d="M 2.34375 -18.84375 L 13.90625 -18.84375 L 13.90625 -15.421875 L 5.453125 -15.421875 L 5.453125 -11.1875 L 12.734375 -11.1875 L 12.734375 -7.796875 L 5.453125 -7.796875 L 5.453125 -2.78125 L 13.90625 -2.78125 L 13.90625 0.65625 L 1.6875 0.65625 L 1.6875 -18.84375 Z M 2.34375 -18.84375"/></g><g id="n"><path d="M 5.59375 -9.25 L 0.03125 -16.515625 L -0.359375 -17.03125 L 0.15625 -17.421875 L 2.21875 -18.953125 L 2.734375 -19.34375 L 3.125 -18.828125 L 7.890625 -12.171875 L 12.59375 -18.75 L 12.984375 -19.265625 L 13.5 -18.875 L 15.421875 -17.421875 L 15.9375 -17.03125 L 15.546875 -16.515625 L 10.171875 -9.390625 L 16.078125 -1.65625 L 16.46875 -1.140625 L 15.9375 -0.75 L 13.9375 0.78125 L 13.421875 1.171875 L 13.03125 0.65625 L 7.8125 -6.421875 L 2.765625 0.59375 L 2.375 1.125 L 1.84375 0.734375 L -0.09375 -0.75 L -0.625 -1.140625 L -0.234375 -1.65625 Z M 5.59375 -9.25"/></g><g id="o"><path d="M 13.125 -7.640625 L 5.453125 -7.640625 L 5.453125 0.65625 L 1.6875 0.65625 L 1.6875 -18.84375 L 5.453125 -18.84375 L 5.453125 -11.078125 L 13.125 -11.078125 L 13.125 -18.84375 L 16.90625 -18.84375 L 16.90625 0.65625 L 13.125 0.65625 Z M 13.125 -7.640625"/></g><g id="p"><path d="M 5.328125 -12.453125 L 5.328125 0.65625 L 1.6875 0.65625 L 1.6875 -18.84375 L 6 -18.84375 L 6.1875 -18.515625 L 13 -5.671875 L 13 -18.84375 L 16.640625 -18.84375 L 16.640625 0.65625 L 12.375 0.65625 L 12.1875 0.3125 Z M 5.328125 -12.453125"/></g><g id="q"><path d="M 9.71875 -10.296875 L 16.484375 -10.296875 L 16.484375 0.65625 L 13 0.65625 L 13 -0.5 C 12.601562 -0.238281 12.175781 0.00390625 11.71875 0.234375 C 10.769531 0.722656 9.710938 0.96875 8.546875 0.96875 C 7.390625 0.96875 6.328125 0.738281 5.359375 0.28125 C 5.046875 0.125 4.738281 -0.0507812 4.4375 -0.25 C 4.144531 -0.445312 3.863281 -0.664062 3.59375 -0.90625 C 3.332031 -1.15625 3.085938 -1.414062 2.859375 -1.6875 C 2.160156 -2.539062 1.613281 -3.554688 1.21875 -4.734375 C 1.03125 -5.304688 0.890625 -5.921875 0.796875 -6.578125 C 0.703125 -7.234375 0.65625 -7.914062 0.65625 -8.625 C 0.65625 -10.15625 0.851562 -11.550781 1.25 -12.8125 C 1.644531 -14.09375 2.222656 -15.203125 2.984375 -16.140625 C 3.234375 -16.472656 3.507812 -16.773438 3.8125 -17.046875 C 4.113281 -17.316406 4.425781 -17.5625 4.75 -17.78125 C 5.082031 -18.007812 5.441406 -18.207031 5.828125 -18.375 C 6.929688 -18.894531 8.195312 -19.15625 9.625 -19.15625 C 10.832031 -19.15625 11.90625 -19.007812 12.84375 -18.71875 C 12.945312 -18.6875 13.050781 -18.648438 13.15625 -18.609375 C 13.257812 -18.578125 13.359375 -18.539062 13.453125 -18.5 C 13.546875 -18.46875 13.640625 -18.429688 13.734375 -18.390625 C 13.835938 -18.347656 13.941406 -18.304688 14.046875 -18.265625 C 14.148438 -18.234375 14.25 -18.195312 14.34375 -18.15625 C 14.4375 -18.113281 14.523438 -18.070312 14.609375 -18.03125 C 14.691406 -17.988281 14.78125 -17.941406 14.875 -17.890625 C 14.976562 -17.835938 15.078125 -17.789062 15.171875 -17.75 C 15.265625 -17.707031 15.351562 -17.660156 15.4375 -17.609375 L 15.96875 -17.3125 L 15.734375 -16.765625 L 14.8125 -14.71875 L 14.53125 -14.0625 L 13.90625 -14.40625 C 13.6875 -14.53125 13.457031 -14.644531 13.21875 -14.75 C 12.988281 -14.863281 12.75 -14.972656 12.5 -15.078125 C 12.257812 -15.179688 12.023438 -15.269531 11.796875 -15.34375 C 11.453125 -15.457031 11.085938 -15.546875 10.703125 -15.609375 C 10.328125 -15.671875 9.921875 -15.703125 9.484375 -15.703125 C 9.117188 -15.703125 8.769531 -15.664062 8.4375 -15.59375 C 8.113281 -15.53125 7.804688 -15.421875 7.515625 -15.265625 C 6.910156 -14.984375 6.390625 -14.566406 5.953125 -14.015625 C 5.503906 -13.421875 5.140625 -12.691406 4.859375 -11.828125 C 4.597656 -10.941406 4.46875 -9.925781 4.46875 -8.78125 C 4.46875 -7.757812 4.59375 -6.851562 4.84375 -6.0625 C 5.082031 -5.28125 5.410156 -4.617188 5.828125 -4.078125 C 6.222656 -3.554688 6.695312 -3.164062 7.25 -2.90625 C 7.53125 -2.769531 7.828125 -2.664062 8.140625 -2.59375 C 8.453125 -2.53125 8.78125 -2.5 9.125 -2.5 C 9.332031 -2.5 9.539062 -2.507812 9.75 -2.53125 C 9.957031 -2.5625 10.15625 -2.601562 10.34375 -2.65625 C 10.539062 -2.707031 10.726562 -2.757812 10.90625 -2.8125 C 11.09375 -2.875 11.257812 -2.953125 11.40625 -3.046875 C 11.507812 -3.097656 11.613281 -3.148438 11.71875 -3.203125 C 11.820312 -3.265625 11.925781 -3.328125 12.03125 -3.390625 C 12.132812 -3.453125 12.234375 -3.519531 12.328125 -3.59375 C 12.378906 -3.625 12.4375 -3.664062 12.5 -3.71875 C 12.570312 -3.769531 12.640625 -3.820312 12.703125 -3.875 C 12.765625 -3.925781 12.8125 -3.96875 12.84375 -4 L 12.84375 -7.046875 L 9.078125 -7.046875 L 9.078125 -10.296875 Z M 9.71875 -10.296875"/></g><g id="r"><path d="M 1.515625 -1.4375 C 1.515625 -1.65625 1.535156 -1.863281 1.578125 -2.0625 C 1.617188 -2.257812 1.6875 -2.453125 1.78125 -2.640625 C 1.875 -2.835938 2 -3.003906 2.15625 -3.140625 C 2.570312 -3.597656 3.15625 -3.828125 3.90625 -3.828125 C 4.53125 -3.828125 5.082031 -3.59375 5.5625 -3.125 C 6.050781 -2.65625 6.296875 -2.09375 6.296875 -1.4375 C 6.296875 -0.71875 6.0625 -0.144531 5.59375 0.28125 C 5.132812 0.738281 4.570312 0.96875 3.90625 0.96875 C 3.257812 0.96875 2.695312 0.726562 2.21875 0.25 C 1.75 -0.226562 1.515625 -0.789062 1.515625 -1.4375 Z M 1.515625 -1.4375"/></g></defs><path fill="#FFF" d="M-37.5 -37.5H412.5V412.5H-37.5z"/><path fill="#FFF" d="M-37.5 -37.5H412.5V412.5H-37.5z"/><g fill="#121212"><use x="65.706" y="204.84" xmlns:xlink="http://www.w3.org/1999/xlink" xlink:href="#a" xlink:type="simple" xlink:actuate="onLoad" xlink:show="embed"/></g><g fill="#121212"><use x="151.506" y="204.84" xmlns:xlink="http://www.w3.org/1999/xlink" xlink:href="#b" xlink:type="simple" xlink:actuate="onLoad" xlink:show="embed"/></g><g fill="#121212"><use x="226.746" y="204.84" xmlns:xlink="http://www.w3.org/1999/xlink" xlink:href="#c" xlink:type="simple" xlink:actuate="onLoad" xlink:show="embed"/></g><g fill="#121212"><use x="32.507" y="240.399" xmlns:xlink="http://www.w3.org/1999/xlink" xlink:href="#d" xlink:type="simple" xlink:actuate="onLoad" xlink:show="embed"/></g><g fill="#121212"><use x="50.234" y="240.399" xmlns:xlink="http://www.w3.org/1999/xlink" xlink:href="#e" xlink:type="simple" xlink:actuate="onLoad" xlink:show="embed"/></g><g fill="#121212"><use x="67.596" y="240.399" xmlns:xlink="http://www.w3.org/1999/xlink" xlink:href="#f" xlink:type="simple" xlink:actuate="onLoad" xlink:show="embed"/></g><g fill="#121212"><use x="87.377" y="240.399" xmlns:xlink="http://www.w3.org/1999/xlink" xlink:href="#g" xlink:type="simple" xlink:actuate="onLoad" xlink:show="embed"/></g><g fill="#121212"><use x="95.174" y="240.399" xmlns:xlink="http://www.w3.org/1999/xlink" xlink:href="#h" xlink:type="simple" xlink:actuate="onLoad" xlink:show="embed"/></g><g fill="#121212"><use x="110.614" y="240.399" xmlns:xlink="http://www.w3.org/1999/xlink" xlink:href="#e" xlink:type="simple" xlink:actuate="onLoad" xlink:show="embed"/></g><g fill="#121212"><use x="127.976" y="240.399" xmlns:xlink="http://www.w3.org/1999/xlink" xlink:href="#i" xlink:type="simple" xlink:actuate="onLoad" xlink:show="embed"/></g><g fill="#121212"><use x="143.078" y="240.399" xmlns:xlink="http://www.w3.org/1999/xlink" xlink:href="#j" xlink:type="simple" xlink:actuate="onLoad" xlink:show="embed"/></g><g fill="#121212"><use x="150.226" y="240.399" xmlns:xlink="http://www.w3.org/1999/xlink" xlink:href="#k" xlink:type="simple" xlink:actuate="onLoad" xlink:show="embed"/></g><g fill="#121212"><use x="164.391" y="240.399" xmlns:xlink="http://www.w3.org/1999/xlink" xlink:href="#e" xlink:type="simple" xlink:actuate="onLoad" xlink:show="embed"/></g><g fill="#121212"><use x="181.754" y="240.399" xmlns:xlink="http://www.w3.org/1999/xlink" xlink:href="#l" xlink:type="simple" xlink:actuate="onLoad" xlink:show="embed"/></g><g fill="#121212"><use x="195.036" y="240.399" xmlns:xlink="http://www.w3.org/1999/xlink" xlink:href="#g" xlink:type="simple" xlink:actuate="onLoad" xlink:show="embed"/></g><g fill="#121212"><use x="202.834" y="240.399" xmlns:xlink="http://www.w3.org/1999/xlink" xlink:href="#m" xlink:type="simple" xlink:actuate="onLoad" xlink:show="embed"/></g><g fill="#121212"><use x="217.26" y="240.399" xmlns:xlink="http://www.w3.org/1999/xlink" xlink:href="#n" xlink:type="simple" xlink:actuate="onLoad" xlink:show="embed"/></g><g fill="#121212"><use x="233.037" y="240.399" xmlns:xlink="http://www.w3.org/1999/xlink" xlink:href="#h" xlink:type="simple" xlink:actuate="onLoad" xlink:show="embed"/></g><g fill="#121212"><use x="248.476" y="240.399" xmlns:xlink="http://www.w3.org/1999/xlink" xlink:href="#o" xlink:type="simple" xlink:actuate="onLoad" xlink:show="embed"/></g><g fill="#121212"><use x="267.061" y="240.399" xmlns:xlink="http://www.w3.org/1999/xlink" xlink:href="#e" xlink:type="simple" xlink:actuate="onLoad" xlink:show="embed"/></g><g fill="#121212"><use x="284.423" y="240.399" xmlns:xlink="http://www.w3.org/1999/xlink" xlink:href="#p" xlink:type="simple" xlink:actuate="onLoad" xlink:show="embed"/></g><g fill="#121212"><use x="302.748" y="240.399" xmlns:xlink="http://www.w3.org/1999/xlink" xlink:href="#q" xlink:type="simple" xlink:actuate="onLoad" xlink:show="embed"/></g><g fill="#121212"><use x="320.267" y="240.399" xmlns:xlink="http://www.w3.org/1999/xlink" xlink:href="#m" xlink:type="simple" xlink:actuate="onLoad" xlink:show="embed"/></g><g fill="#121212"><use x="334.692" y="240.399" xmlns:xlink="http://www.w3.org/1999/xlink" xlink:href="#r" xlink:type="simple" xlink:actuate="onLoad" xlink:show="embed"/></g></svg>